<svg xmlns="http://www.w3.org/2000/svg" viewBox="0 0 217.31 196.31"><defs><style>.cls-1,.cls-3{fill:#fff;}.cls-2{fill:#e95540;}.cls-3{font-size:10.44px;font-family:Akrobat-Bold, Akrobat Bold;font-weight:700;}.cls-4{letter-spacing:-0.08em;}.cls-5{letter-spacing:0em;}.cls-6{letter-spacing:0em;}.cls-7{letter-spacing:0.01em;}.cls-8{letter-spacing:-0.01em;}.cls-9{letter-spacing:-0.01em;}.cls-10{letter-spacing:-0.02em;}.cls-11{letter-spacing:0.03em;}.cls-12{letter-spacing:0em;}</style></defs><g id="Шар_2" data-name="Шар 2"><g id="Слой_1" data-name="Слой 1"><path class="cls-1" d="M13.08,134.55H41.81v31.2H33.42V142.63H21.54v23.12H13.08Z"/><path class="cls-1" d="M132.43,152.86a14.23,14.23,0,0,1-6.4,11c-8.31,5.62-22.81,2.64-25.15-10.61a16.34,16.34,0,0,1,7.19-17c6.48-4,15.42-2.95,20.47,2.37a13.89,13.89,0,0,1,3.87,8.81c-.27,0-.47.06-.68.06-2.38,0-4.76,0-7.14,0a.82.82,0,0,1-.92-.65,6.94,6.94,0,0,0-7.22-4.85,7.27,7.27,0,0,0-6.85,5.67,9,9,0,0,0,1.29,7.71,7,7,0,0,0,7,2.88,6.61,6.61,0,0,0,5.72-4.72c.18-.53.39-.71,1-.7C127.18,152.88,129.74,152.86,132.43,152.86Z"/><path class="cls-1" d="M148.32,165.75V134.57h8.33v11.56c1.39,0,2.71,0,4,0,.24,0,.52-.34.68-.58q3.42-5.16,6.79-10.34a1.34,1.34,0,0,1,1.31-.69c2.73,0,5.46,0,8.33,0-.2.35-.34.6-.49.83-2.93,4.49-5.84,9-8.8,13.46a1.08,1.08,0,0,0,0,1.42c3.19,4.86,6.36,9.75,9.53,14.62.18.27.35.54.57.9a6.34,6.34,0,0,1-.65.07c-2.93,0-5.85,0-8.77,0a1.05,1.05,0,0,1-1-.58c-2.27-3.47-4.57-6.93-6.83-10.41a1.23,1.23,0,0,0-1.24-.65c-1.1,0-2.21,0-3.39,0v11.56Z"/><path class="cls-1" d="M58.86,154.55h8.4c0,.73-.05,1.43,0,2.12a2.57,2.57,0,0,0,3.17,2.57,1.56,1.56,0,0,0,1.4-1.92,6.65,6.65,0,0,0-1-2.26q-6.6-9.84-13.27-19.62c-.18-.26-.34-.52-.62-.93h1c2.76,0,5.52,0,8.28,0a1.33,1.33,0,0,1,1.35.74c2.85,4.76,5.73,9.5,8.6,14.24,0,0,0,0,.15.08.51-1.81,1-3.6,1.52-5.39.83-3,1.67-5.95,2.49-8.94.14-.51.33-.74.92-.73,2.43,0,4.87,0,7.3,0,.21,0,.42,0,.74.06-.37,1.08-.71,2.09-1,3.1-2.27,6.64-4.51,13.29-6.83,19.92A13.48,13.48,0,0,1,76,165c-4.14,2.56-12.35,2.19-15.73-3.41A11.54,11.54,0,0,1,58.86,154.55Z"/><path class="cls-1" d="M186.12,82.63a2.3,2.3,0,1,1,2.3,2.3A2.3,2.3,0,0,1,186.12,82.63Z"/><path class="cls-1" d="M68.76,82.63a2.3,2.3,0,1,1,2.3,2.3A2.3,2.3,0,0,1,68.76,82.63Z"/><path class="cls-1" d="M186.12,62.55a2.3,2.3,0,1,1,2.3,2.29A2.3,2.3,0,0,1,186.12,62.55Z"/><path class="cls-1" d="M68.76,62.55a2.3,2.3,0,1,1,2.3,2.29A2.3,2.3,0,0,1,68.76,62.55Z"/><path class="cls-1" d="M186.12,42.46a2.3,2.3,0,1,1,2.3,2.3A2.3,2.3,0,0,1,186.12,42.46Z"/><path class="cls-1" d="M68.76,42.46a2.3,2.3,0,1,1,2.3,2.29A2.3,2.3,0,0,1,68.76,42.46Z"/><path class="cls-1" d="M186.12,22.38a2.3,2.3,0,1,1,2.3,2.29A2.29,2.29,0,0,1,186.12,22.38Z"/><path class="cls-1" d="M68.76,22.38a2.3,2.3,0,1,1,2.3,2.29A2.29,2.29,0,0,1,68.76,22.38Z"/><path class="cls-1" d="M186.12,2.29a2.3,2.3,0,1,1,2.3,2.3A2.3,2.3,0,0,1,186.12,2.29Z"/><path class="cls-1" d="M68.76,2.29a2.3,2.3,0,1,1,2.3,2.29A2.3,2.3,0,0,1,68.76,2.29Z"/><path class="cls-1" d="M163.52,82.63a2.3,2.3,0,1,1,2.3,2.3A2.3,2.3,0,0,1,163.52,82.63Z"/><path class="cls-1" d="M46.16,82.63a2.3,2.3,0,1,1,2.3,2.3A2.3,2.3,0,0,1,46.16,82.63Z"/><path class="cls-1" d="M163.52,62.55a2.3,2.3,0,1,1,2.3,2.29A2.3,2.3,0,0,1,163.52,62.55Z"/><path class="cls-1" d="M46.16,62.55a2.3,2.3,0,1,1,2.3,2.29A2.3,2.3,0,0,1,46.16,62.55Z"/><path class="cls-1" d="M163.52,42.46a2.3,2.3,0,1,1,2.3,2.3A2.3,2.3,0,0,1,163.52,42.46Z"/><path class="cls-1" d="M46.16,42.46a2.3,2.3,0,1,1,2.3,2.29A2.3,2.3,0,0,1,46.16,42.46Z"/><path class="cls-1" d="M163.52,22.38a2.3,2.3,0,1,1,2.3,2.29A2.29,2.29,0,0,1,163.52,22.38Z"/><path class="cls-1" d="M46.16,22.38a2.3,2.3,0,1,1,2.3,2.29A2.29,2.29,0,0,1,46.16,22.38Z"/><path class="cls-1" d="M163.52,2.29a2.3,2.3,0,1,1,2.3,2.3A2.3,2.3,0,0,1,163.52,2.29Z"/><path class="cls-1" d="M46.16,2.29a2.3,2.3,0,1,1,2.3,2.29A2.3,2.3,0,0,1,46.16,2.29Z"/><ellipse class="cls-1" cx="143.22" cy="82.63" rx="2.3" ry="2.29"/><ellipse class="cls-1" cx="25.87" cy="82.63" rx="2.3" ry="2.29"/><ellipse class="cls-1" cx="143.22" cy="62.55" rx="2.3" ry="2.29"/><ellipse class="cls-1" cx="25.87" cy="62.55" rx="2.3" ry="2.29"/><ellipse class="cls-1" cx="143.22" cy="42.46" rx="2.3" ry="2.29"/><ellipse class="cls-1" cx="25.87" cy="42.46" rx="2.3" ry="2.29"/><ellipse class="cls-1" cx="143.22" cy="22.38" rx="2.3" ry="2.29"/><ellipse class="cls-1" cx="25.87" cy="22.38" rx="2.3" ry="2.29"/><path class="cls-1" d="M140.93,2.29a2.3,2.3,0,1,1,2.29,2.3A2.29,2.29,0,0,1,140.93,2.29Z"/><ellipse class="cls-1" cx="25.87" cy="2.29" rx="2.3" ry="2.29"/><path class="cls-1" d="M118.33,82.63a2.3,2.3,0,1,1,2.3,2.3A2.3,2.3,0,0,1,118.33,82.63Z"/><path class="cls-1" d="M1,82.63a2.3,2.3,0,1,1,2.3,2.3A2.3,2.3,0,0,1,1,82.63Z"/><path class="cls-1" d="M118.33,62.55a2.3,2.3,0,1,1,2.3,2.29A2.3,2.3,0,0,1,118.33,62.55Z"/><path class="cls-1" d="M1,62.55a2.3,2.3,0,1,1,2.3,2.29A2.3,2.3,0,0,1,1,62.55Z"/><path class="cls-1" d="M118.33,42.46a2.3,2.3,0,1,1,2.3,2.3A2.3,2.3,0,0,1,118.33,42.46Z"/><path class="cls-1" d="M1,42.46a2.3,2.3,0,1,1,2.3,2.29A2.3,2.3,0,0,1,1,42.46Z"/><path class="cls-1" d="M118.33,22.38a2.3,2.3,0,1,1,2.3,2.29A2.29,2.29,0,0,1,118.33,22.38Z"/><path class="cls-1" d="M1,22.38a2.3,2.3,0,1,1,2.3,2.29A2.29,2.29,0,0,1,1,22.38Z"/><path class="cls-1" d="M118.33,2.29a2.3,2.3,0,1,1,2.3,2.3A2.3,2.3,0,0,1,118.33,2.29Z"/><path class="cls-1" d="M1,2.29a2.3,2.3,0,1,1,2.3,2.29A2.3,2.3,0,0,1,1,2.29Z"/><ellipse class="cls-2" cx="95.84" cy="42.46" rx="39.58" ry="39.48"/></g></g></svg>