<svg xmlns="http://www.w3.org/2000/svg" viewBox="0 0 189.74 166.52"><defs><style>.cls-1{fill:#fff;}.cls-2{fill:#e95540;}</style></defs><g id="Шар_2" data-name="Шар 2"><g id="Слой_1" data-name="Слой 1"><path class="cls-1" d="M12.1,134.55H40.84v31.2h-8.4V142.63H20.57v23.12H12.1Z"/><path class="cls-1" d="M131.46,152.86a14.23,14.23,0,0,1-6.4,11c-8.31,5.62-22.81,2.64-25.15-10.61a16.35,16.35,0,0,1,7.18-17c6.49-4,15.42-2.95,20.48,2.37a13.83,13.83,0,0,1,3.86,8.81c-.26,0-.47.06-.67.06-2.38,0-4.76,0-7.15,0a.81.81,0,0,1-.91-.65,7,7,0,0,0-7.23-4.85,7.26,7.26,0,0,0-6.84,5.67,9,9,0,0,0,1.29,7.71,7,7,0,0,0,7,2.88,6.61,6.61,0,0,0,5.72-4.72c.18-.53.39-.71,1-.7C126.2,152.88,128.77,152.86,131.46,152.86Z"/><path class="cls-1" d="M147.35,165.75V134.57h8.33v11.56c1.39,0,2.71,0,4,0,.24,0,.51-.34.68-.58q3.42-5.16,6.79-10.34a1.34,1.34,0,0,1,1.31-.69c2.73,0,5.45,0,8.33,0-.21.35-.34.6-.49.83-2.93,4.49-5.85,9-8.8,13.46a1.09,1.09,0,0,0,0,1.42c3.2,4.86,6.37,9.75,9.54,14.62.18.27.34.54.57.9a6.34,6.34,0,0,1-.65.07c-2.93,0-5.85,0-8.77,0a1.08,1.08,0,0,1-1-.58c-2.26-3.47-4.56-6.93-6.82-10.41a1.23,1.23,0,0,0-1.24-.65c-1.1,0-2.21,0-3.39,0v11.56Z"/><path class="cls-1" d="M57.89,154.55h8.4c0,.73-.05,1.43,0,2.12a2.57,2.57,0,0,0,3.17,2.57,1.56,1.56,0,0,0,1.4-1.92,6.65,6.65,0,0,0-1-2.26q-6.61-9.84-13.27-19.62c-.18-.26-.35-.52-.62-.93h1c2.76,0,5.52,0,8.28,0a1.33,1.33,0,0,1,1.35.74c2.84,4.76,5.73,9.5,8.6,14.24,0,0,0,0,.15.08.51-1.81,1-3.6,1.52-5.39.83-3,1.67-5.95,2.48-8.94.14-.51.34-.74.93-.73,2.43,0,4.87,0,7.3,0,.21,0,.42,0,.74.06-.37,1.08-.71,2.09-1,3.1-2.27,6.64-4.51,13.29-6.84,19.92A13.46,13.46,0,0,1,75.05,165c-4.14,2.56-12.36,2.19-15.73-3.41A11.47,11.47,0,0,1,57.89,154.55Z"/><path class="cls-1" d="M185.14,82.63a2.3,2.3,0,1,1,2.3,2.3A2.3,2.3,0,0,1,185.14,82.63Z"/><path class="cls-1" d="M67.79,82.63a2.3,2.3,0,1,1,2.3,2.3A2.3,2.3,0,0,1,67.79,82.63Z"/><path class="cls-1" d="M185.14,62.55a2.3,2.3,0,1,1,2.3,2.29A2.3,2.3,0,0,1,185.14,62.55Z"/><path class="cls-1" d="M185.14,42.46a2.3,2.3,0,1,1,2.3,2.3A2.3,2.3,0,0,1,185.14,42.46Z"/><path class="cls-1" d="M185.14,22.38a2.3,2.3,0,1,1,2.3,2.29A2.29,2.29,0,0,1,185.14,22.38Z"/><path class="cls-1" d="M185.14,2.29a2.3,2.3,0,1,1,2.3,2.3A2.3,2.3,0,0,1,185.14,2.29Z"/><path class="cls-1" d="M67.79,2.29a2.3,2.3,0,1,1,2.3,2.29A2.3,2.3,0,0,1,67.79,2.29Z"/><path class="cls-1" d="M162.55,82.63a2.3,2.3,0,1,1,2.3,2.3A2.3,2.3,0,0,1,162.55,82.63Z"/><path class="cls-1" d="M45.19,82.63a2.3,2.3,0,1,1,2.3,2.3A2.3,2.3,0,0,1,45.19,82.63Z"/><path class="cls-1" d="M162.55,62.55a2.3,2.3,0,1,1,2.3,2.29A2.3,2.3,0,0,1,162.55,62.55Z"/><path class="cls-1" d="M45.19,62.55a2.3,2.3,0,1,1,2.3,2.29A2.3,2.3,0,0,1,45.19,62.55Z"/><path class="cls-1" d="M162.55,42.46a2.3,2.3,0,1,1,2.3,2.3A2.3,2.3,0,0,1,162.55,42.46Z"/><path class="cls-1" d="M45.19,42.46a2.3,2.3,0,1,1,2.3,2.29A2.3,2.3,0,0,1,45.19,42.46Z"/><path class="cls-1" d="M162.55,22.38a2.3,2.3,0,1,1,2.3,2.29A2.29,2.29,0,0,1,162.55,22.38Z"/><path class="cls-1" d="M45.19,22.38a2.3,2.3,0,1,1,2.3,2.29A2.29,2.29,0,0,1,45.19,22.38Z"/><path class="cls-1" d="M162.55,2.29a2.3,2.3,0,1,1,2.3,2.3A2.3,2.3,0,0,1,162.55,2.29Z"/><path class="cls-1" d="M45.19,2.29a2.3,2.3,0,1,1,2.3,2.29A2.3,2.3,0,0,1,45.19,2.29Z"/><ellipse class="cls-1" cx="142.25" cy="82.63" rx="2.3" ry="2.29"/><ellipse class="cls-1" cx="24.89" cy="82.63" rx="2.3" ry="2.29"/><ellipse class="cls-1" cx="142.25" cy="62.55" rx="2.3" ry="2.29"/><ellipse class="cls-1" cx="24.89" cy="62.55" rx="2.3" ry="2.29"/><ellipse class="cls-1" cx="142.25" cy="42.46" rx="2.3" ry="2.29"/><ellipse class="cls-1" cx="24.89" cy="42.46" rx="2.3" ry="2.29"/><ellipse class="cls-1" cx="142.25" cy="22.38" rx="2.3" ry="2.29"/><ellipse class="cls-1" cx="24.89" cy="22.38" rx="2.3" ry="2.29"/><path class="cls-1" d="M140,2.29a2.3,2.3,0,1,1,2.3,2.3A2.3,2.3,0,0,1,140,2.29Z"/><ellipse class="cls-1" cx="24.89" cy="2.29" rx="2.3" ry="2.29"/><path class="cls-1" d="M117.36,82.63a2.3,2.3,0,1,1,2.3,2.3A2.3,2.3,0,0,1,117.36,82.63Z"/><path class="cls-1" d="M0,82.63a2.3,2.3,0,1,1,2.3,2.3A2.3,2.3,0,0,1,0,82.63Z"/><path class="cls-1" d="M0,62.55a2.3,2.3,0,1,1,2.3,2.29A2.3,2.3,0,0,1,0,62.55Z"/><path class="cls-1" d="M0,42.46a2.3,2.3,0,1,1,2.3,2.29A2.3,2.3,0,0,1,0,42.46Z"/><path class="cls-1" d="M0,22.38a2.3,2.3,0,1,1,2.3,2.29A2.29,2.29,0,0,1,0,22.38Z"/><path class="cls-1" d="M117.36,2.29a2.3,2.3,0,1,1,2.3,2.3A2.3,2.3,0,0,1,117.36,2.29Z"/><path class="cls-1" d="M0,2.29A2.3,2.3,0,1,1,2.3,4.58,2.3,2.3,0,0,1,0,2.29Z"/><ellipse class="cls-2" cx="94.87" cy="42.46" rx="39.58" ry="39.48"/></g></g></svg>