<svg xmlns="http://www.w3.org/2000/svg" viewBox="0 0 192.05 180.34"><defs><style>.cls-1{fill-rule:evenodd;}</style></defs><g id="Шар_2" data-name="Шар 2"><g id="Слой_1" data-name="Слой 1"><path class="cls-1" d="M41,15.29c4,7,4.46,38.3,4.46,48.43,0,7,2.12,24.22,2.12,24.22,6.35-7,13.86-8.22,22.73-9.77L68,68.18,55.46,71.8c1-22.95.5-37.63-2.12-60.33,0,0-5.1.64-6.37,1.49A40.67,40.67,0,0,1,41,15.29M84.78,7a90,90,0,0,1-.43,18.27c-1.27,9.13-4,34.2-4,34.2L78.4,80.93,89,79.87l.21-13.38,12.32-.22,1.27,13.39,13-1.49S105.59,50.77,104.53,41c-1.23-11.38-1.69-23.77-5.31-34.63C94.21,5.54,89.75,6.28,84.78,7Zm39.72,6.16c-2.39,10.8-6.33,41.77-3,51.4,1.7,4.89,3.61,9.77,9.56,11.05,16.4,3.51,16.32-10.3,18.27-21l-6.58-1.49s-1.28,6.59-2.55,9.35-7,4.67-8.5-2.34c-1.26-5.93-3.26-52.4,9.56-44.39,3.94,2.46.89,8.79-.21,12.11h10s1.91-12.54,1.27-15.09C148.52-2.48,126.83,2.62,124.5,13.17ZM161,2.55s0,25.7-.85,34.83-4.88,36.11-4.88,36.11l11.26-2.12,2.54-23.79,12.33,25.49,10.62-1.7L177.39,39.72s5.1-14.23,7-18.9S191.2,1.7,191.2,1.7A49.67,49.67,0,0,0,181.64,0s-3.83,8.71-5.31,11.26-5.74,10.41-5.74,10.41l1.7-19.76C168.51,1.44,164.81,2.38,161,2.55Zm-122.35,102c4.88,23.91,4.39,50.38,8.92,75.83l11.47-4.46a274,274,0,0,1-3-37.81L83.93,130l.85-10.84-32.29,7.65L51.43,113c13.05-4.73,26.55-8,39.08-12.53l-1.7-7.65C80.51,91.55,48.25,101,38.68,104.51ZM105.81,93s-7.86.85-8.5,6.79-2.55,28-1.7,40.79,3.61,23.15,5.31,25.06a12.16,12.16,0,0,0,13.38,3.19c6.59-2.55,10.62-3.61,13-20s2.55-34,.21-40.57-7-13.59-8.92-14.87a18.25,18.25,0,0,0-8.71-2.12A9,9,0,0,0,105.81,93Zm27-3.19,12.54-3c4.23,7.44,7.23,15.22,11,22.09,3.62-8.88,6.15-17.79,9.56-26.55L180.58,85c-5.79,11.9-9.73,23.7-15.3,35.47,6.82,16.11,12.29,30.3,16.36,47.37l-13.6,3c-3.18-15.07-5.16-27.2-11.25-41.42l-8.08,40.78-11.47.43c4.1-16.84,5.81-33.24,10.84-49.92ZM3.21,95s-1.7-30.16-2.55-38S0,24.21,0,24.21c6.83-3.69,25.88-9.36,28.25,1.92.85,4,0,11.68-2.33,15.29s-9.14,9.13-9.14,9.13,7.44.64,11.9,3.19,8.07,5.1,8.5,11.26c1.17,17-6.64,25.33-23.58,28.46C7.88,94.52,3.21,95,3.21,95Z"/></g></g></svg>