<svg xmlns="http://www.w3.org/2000/svg" viewBox="0 0 19.99 19.99"><defs><style>.cls-1{fill:#010101;}</style></defs><g id="Шар_2" data-name="Шар 2"><g id="Слой_1" data-name="Слой 1"><path class="cls-1" d="M10,0A10,10,0,1,1,0,10,10,10,0,0,1,10,0Zm0,1.5A8.5,8.5,0,1,0,18.49,10,8.51,8.51,0,0,0,10,1.5Zm0,7.43,2.71-2.72A.75.75,0,0,1,14,6.74a.77.77,0,0,1-.21.53L11.06,10l2.73,2.72a.79.79,0,0,1,.22.53.75.75,0,0,1-.75.75.74.74,0,0,1-.53-.21L10,11.05,7.27,13.78a.77.77,0,0,1-.53.21.75.75,0,0,1-.53-1.28L8.94,10,6.21,7.26A.75.75,0,0,1,6.74,6a.79.79,0,0,1,.54.22Z"/></g></g></svg>