<svg xmlns="http://www.w3.org/2000/svg" viewBox="0 0 227.41 287.81"><defs><style>.cls-1,.cls-2{fill:#fff;}.cls-2{fill-rule:evenodd;}.cls-3{fill:#090400;}</style></defs><g id="Шар_2" data-name="Шар 2"><g id="Слой_1" data-name="Слой 1"><ellipse class="cls-1" cx="59.96" cy="87.3" rx="2.13" ry="1.26"/><circle class="cls-1" cx="39.73" cy="140.65" r="2.16"/><ellipse class="cls-1" cx="51.17" cy="142.24" rx="2.04" ry="1.33"/><ellipse class="cls-1" cx="44.65" cy="150.27" rx="2.3" ry="1.49"/><circle class="cls-1" cx="151.77" cy="159.04" r="2.47"/><circle class="cls-1" cx="154.6" cy="150.04" r="1.81"/><ellipse class="cls-1" cx="146.24" cy="144.78" rx="2.46" ry="1.28"/><circle class="cls-1" cx="166.72" cy="95.84" r="1.08"/><circle class="cls-1" cx="65.2" cy="78.16" r="1.08"/><path class="cls-2" d="M145.41,49.42a.83.83,0,0,1,0,.22c0,.73-.94,1.32-2.1,1.32a3.1,3.1,0,0,1-.62-.07,2,2,0,0,0,2.06,1.1c1.17,0,2.11-.59,2.11-1.32S146.26,49.59,145.41,49.42Z"/><path class="cls-2" d="M142.32,81.34a9.15,9.15,0,0,1-2.79-.41,1.41,1.41,0,0,0-.07.41c0,1.22,1.56,2.22,3.49,2.22s3.48-1,3.48-2.22a1.53,1.53,0,0,0-.28-.87A8,8,0,0,1,142.32,81.34Z"/><path class="cls-2" d="M150.43,87.72a3.37,3.37,0,0,1-3,1.29,4.08,4.08,0,0,1-2.39-.7,1.29,1.29,0,0,0-.22.7c0,1.07,1.43,1.94,3.19,1.94s3.2-.87,3.2-1.94A1.61,1.61,0,0,0,150.43,87.72Z"/><path class="cls-2" d="M162.73,80.66l-.43,0a.9.9,0,0,1,.43.7c0,.6-.8,1.1-1.79,1.1a2.72,2.72,0,0,1-.3,0,2.36,2.36,0,0,0,2.09.93c1.22,0,2.21-.61,2.21-1.36S164,80.66,162.73,80.66Z"/><path class="cls-2" d="M150.07,57.63a3.25,3.25,0,0,0-.44,0,.91.91,0,0,1,.44.7c0,.6-.8,1.1-1.79,1.1a2.72,2.72,0,0,1-.3,0,2.36,2.36,0,0,0,2.09.93c1.22,0,2.21-.61,2.21-1.36S151.29,57.63,150.07,57.63Z"/><path class="cls-2" d="M161.59,87.09a.62.62,0,0,1,.11.27c0,.51-.83.93-1.85.93a3,3,0,0,1-1.27-.26.58.58,0,0,0-.06.26c0,.67,1.2,1.21,2.69,1.21s2.69-.54,2.69-1.21S162.89,87.17,161.59,87.09Z"/><path class="cls-2" d="M148,101.08c-1.65,0-3-.67-3-1.5a.3.3,0,0,1,0-.1c-1.19.16-2.07.81-2.07,1.6s1.18,1.64,2.63,1.64,2.64-.73,2.64-1.64H148Z"/><path class="cls-2" d="M129.8,58.23c-1.65,0-3-.67-3-1.5,0,0,0-.07,0-.1-1.18.16-2.07.81-2.07,1.6s1.18,1.64,2.63,1.64,2.64-.73,2.64-1.64h-.24Z"/><path class="cls-1" d="M101.7,4.57a33.88,33.88,0,0,1,11.93-2.48,58.09,58.09,0,0,0-10.21,6.54,41.12,41.12,0,0,1,1.9,10.71c-1.61-3.11-2.09-6.63-2.95-10A28.58,28.58,0,0,0,99.51,12c1.18,2.18,1.12,4.7,1,7.11-1.62-1.52-2-3.8-2.6-5.84a24.52,24.52,0,0,0-4.25,5.63,97.17,97.17,0,0,0-12,1.06c2.93-3.24,6.22-6.1,9.33-9.16A28.91,28.91,0,0,1,101.7,4.57Z"/><path class="cls-1" d="M126.26,5.11q2.05-.5,4.14-.81c-1.24,4.77-2.75,9.48-3.88,14.29-.21-3.24.15-6.51-.23-9.74C126.21,7.6,126.25,6.36,126.26,5.11Z"/><path class="cls-1" d="M88.77,20.47l1.51-.34c1.28,3.85,2.64,7.67,3.91,11.52a36.87,36.87,0,0,1,2,7.68,23.63,23.63,0,0,0,1,5.15,55.15,55.15,0,0,0-1.88-13.94c-.88-3.51-1.3-7.2-2.94-10.46a1.71,1.71,0,0,1,1.85.89c3,7.6,5.68,15.48,6.51,23.66a120.13,120.13,0,0,1,1.14,15.74c.34,2.28-.05,4.57-.11,6.86a32.21,32.21,0,0,0-7.4.65,43.76,43.76,0,0,0-.75-6.47,115.22,115.22,0,0,0-3-14.12c-1-2.13-1.62-4.38-2.42-6.58A53.06,53.06,0,0,0,84.61,33a55.79,55.79,0,0,1,7.08,14.91,17.71,17.71,0,0,1,2,.34c-2-5.77-3.57-11.73-6.24-17.26-1.45-3.5-3.78-6.52-5.81-9.69l1.65-.2c1.62,2.21,2.6,4.79,4,7.13,1.85,3.27,2.87,6.93,4.56,10.26a22,22,0,0,0-1.55-6.63,52.63,52.63,0,0,0-5-11c.52-.09,1-.16,1.56-.2,1.09,2.43,2.25,4.82,3.32,7.26,1.49,4.11,3,8.21,4.17,12.43a6.66,6.66,0,0,0,1.06,2.56A16.35,16.35,0,0,0,94.89,40C93.38,33.35,92,26.54,88.77,20.47Z"/><path class="cls-1" d="M141.84,23.13c1.13-.72,2.52-.46,3.78-.46-3.17,2.88-5.1,6.81-8.07,9.86C138.86,29.35,140.36,26.24,141.84,23.13Z"/><path class="cls-1" d="M176.84,95.42c4.49-1.87,9-4,13.9-4.5a17.68,17.68,0,0,1,7.84,1c1.52.91,3.33,1.71,4.1,3.42,1.29,3,.59,6.31-.59,9.19a29.48,29.48,0,0,1-4.1,5.85,8.22,8.22,0,0,1-2.62,1.93c.13-2.95-2.22-5-4.17-6.8,2.24-1.12,3.37-3.48,4.05-5.77.27-1.77-.63-4-2.54-4.37a12,12,0,0,0-7.1.86c-2.49,1.31-5.37,1.86-7.54,3.75-3.27,2.72-6.86,5-10.21,7.6-2.58,1.51-4.67,3.65-7.12,5.32a90.45,90.45,0,0,0-7.36,5.86,43.53,43.53,0,0,0,.63-8.06c2.52-1.21,4.4-3.32,6.62-5A59.21,59.21,0,0,1,172,98.08,50,50,0,0,1,176.84,95.42Z"/><path class="cls-1" d="M172.49,94.82A28,28,0,0,1,183,91.47a99.69,99.69,0,0,0-17.14,8.71c-4.24,2.73-8.77,5.14-12.49,8.6-.92-.74-2.11-.5-3.2-.5,3.79-2.51,7.5-5.13,11.45-7.38C165,98.54,168.89,96.92,172.49,94.82Z"/><path class="cls-1" d="M41.9,97.82l2-1.24a66.15,66.15,0,0,0,8,2c7.34,1.63,14.67,3.36,22,4.85,4.89,1.13,9.88,1.8,14.69,3.28-.61.3-1.21.62-1.79,1-2.67-1.63-5.91-1.54-8.87-2.16-4.51-1-9.15-1.33-13.6-2.57-4-.87-7.9-2-11.83-3Q47.25,98.78,41.9,97.82Z"/><path class="cls-1" d="M191.64,97.89c1-.59.83,1.92-.08,1.48A1.37,1.37,0,0,1,191.64,97.89Z"/><path class="cls-1" d="M40,99.42c5,1.55,10.16,2.53,15.17,4C61.52,105,67.91,106.1,74.34,107c3.91.86,8,1,11.75,2.37A18.75,18.75,0,0,0,86,114.7c-.87,1.51-.69,3.35-1.56,4.85-1.06,2-2,4.16-3.76,5.66-2.93.28-6,1.41-7.74,4-.74,1-1,2.24-1.75,3.24-1.37,1-3.19,1.2-4.84,1.44a16.46,16.46,0,0,1-8.66-1.39c-3.17-1.82-6.73-3.27-9.07-6.22C46,122.9,43.26,119.52,42,115.44a62.85,62.85,0,0,1-1.63-7.92C39.91,104.83,40.5,102.11,40,99.42Zm5.25,5.32C44,110.68,47,116.29,49.69,121.37A15.79,15.79,0,0,0,58.63,129c2.71,1.35,5.84,1.26,8.76.86a12.38,12.38,0,0,0,6.21-3.76,25.73,25.73,0,0,0,4.05-8.36,45.61,45.61,0,0,0,1.51-7.31c-1,.07-1.86.61-2.81.44-9.74-2.23-19.42-4.75-29.26-6.49A4.37,4.37,0,0,0,45.28,104.74Z"/><path class="cls-1" d="M91.93,106.05c1.69-.18,3.45-.63,5.12-.08a7.25,7.25,0,0,1,2.8,1.83,13,13,0,0,1-1.2,1.59A10.32,10.32,0,0,0,91.93,106.05Z"/><path class="cls-1" d="M87.71,109.09a12,12,0,0,1,4.84-1.17,9.33,9.33,0,0,1,5.31,2.72,46.89,46.89,0,0,0-.69,5.4c-1.36-1.82-3.19-3.54-5.54-3.82a6.06,6.06,0,0,0-4.17,1.3A26.22,26.22,0,0,0,87.71,109.09Z"/><path class="cls-1" d="M102.18,108.62c3.94.5,7.91.17,11.86.33,2.77.37,5.57,0,8.34.33,7.17.17,14.35-.17,21.51.25,2.81-.11,5.61.23,8.41.23a40.45,40.45,0,0,0-3,2.72c-9.55-.51-19.11-.92-28.67-1.16-2.75-.32-5.54.07-8.29-.29-4.1-.1-8.19-.54-12.29-.46C100.77,109.93,101.5,109.3,102.18,108.62Z"/><path class="cls-1" d="M99.18,116.76c.2-1.57.08-3.16.19-4.74a81.77,81.77,0,0,0,9.26.42c8.58.33,17.16.84,25.73,1.16,4.84.08,9.68.28,14.51.51-.44,4-1.73,7.76-2.75,11.61a21.21,21.21,0,0,1-6.53,10c-3.09,3-6.65,5.85-10.94,6.89-4.07,1.48-8.42.57-12.56-.05a23.83,23.83,0,0,1-7.69-2.75c-1.94-1-3.37-2.7-4.9-4.22-1.87-2-2.27-4.79-3-7.3C99.69,124.51,98.74,120.66,99.18,116.76Zm5.1.24c-1.88,5.56-1.06,12.37,3.35,16.54,2.87,3.19,7.2,4.59,11.38,4.81a24.38,24.38,0,0,0,12.76-4.24c1.21-.94,2.84-1.17,4-2.25a24.2,24.2,0,0,0,8-14c-3.56-.46-7.16,0-10.73-.43-3.17.07-6.32-.33-9.48-.23a163.06,163.06,0,0,0-17.82-.57C105.24,116.73,104.76,116.86,104.28,117Z"/><path class="cls-1" d="M166.56,128.68a7.28,7.28,0,0,1,3.31.24,4.66,4.66,0,0,1-2.7.8C167,129.46,166.71,128.94,166.56,128.68Z"/><path class="cls-1" d="M77.76,149.61c2.2.79,4.19,2,6.36,2.93,2.75,1.54,5.49,3.34,8.68,3.8,3,.39,6.1.74,9-.33,3.67-1.33,7.23-3,11.06-3.89,4.91-1,10.1-2.44,15-.52a39.36,39.36,0,0,1-15.43,9.94c-5.39,1.4-11,2.93-16.57,2.12-4.26-.77-8.71-1.15-12.58-3.23-1.73-.71-3.15-2-4.79-2.81A15.49,15.49,0,0,1,77.76,149.61Z"/><path class="cls-1" d="M158.46,153.74a10.32,10.32,0,0,1,2-3.39c-1.2,2.21-2.26,5.11-.69,7.41.62.68-.05,1.5-.22,2.23C158.43,158.13,157.71,155.85,158.46,153.74Z"/><path class="cls-1" d="M205.44,150.73a25,25,0,0,1,6.05,10.79c1,3.24.46,6.67.6,10,.17,2.79-1.51,5.16-2.5,7.65a64.82,64.82,0,0,0-1.83,6.4,32.79,32.79,0,0,0-3.84,15c-.36,2.45.3,5.11-.83,7.41-1.12,1.71-2.45,3.6-4.56,4.11a5.13,5.13,0,0,1-6.56-2.84c-1.29-3.17-.08-6.65,1.1-9.66.56-1.81,1.91-3.24,2.44-5.06a38.5,38.5,0,0,0,6.54-8c-1.55,1.36-2.56,3.24-4.16,4.57-2.95,2.48-6.2,4.94-10.12,5.51-3,.64-6.07,1.26-9.1.64a12.07,12.07,0,0,1-9.28-4.83c-.78-1.44-1.79-3-1.43-4.71-.05-.62.55-1.32,1.19-1,2.72,1.22,5.7,2.32,8.72,1.84a17,17,0,0,0,6.72-1.17c4-1.15,8.08-2.57,11.27-5.34,1.46-1.69,3.39-3.17,3.91-5.45a5,5,0,0,0-2.76,1.62,19,19,0,0,1-7.62,4.8c-5.15,2.35-10.95,2.65-16.53,2.59a17,17,0,0,1-7.55-3.19,10.34,10.34,0,0,1-2-6.93,7.68,7.68,0,0,0,4.43-.81,16.84,16.84,0,0,0,1.93-1.94c3.92,2.46,8.82,2.34,13.24,1.71A37.59,37.59,0,0,0,195,169.1a18.32,18.32,0,0,0,5.13-4.4c1.08-1.6,2.28-3.26,2.52-5.23.2-1.3.22-2.61.44-3.9A18.23,18.23,0,0,0,205.44,150.73Zm-4.89,19.68c.2.66.32,1.43,1,1.76,1.71-.64,2.66-2.46,3.21-4.09A10.08,10.08,0,0,0,200.55,170.41Zm2.47,8a4,4,0,0,0-1.23,2.16,4.39,4.39,0,0,0,1.34,1.77,14.92,14.92,0,0,0,3-6.9A11,11,0,0,0,203,178.4Z"/><path class="cls-1" d="M199.48,158.67c.45-.12.9-.23,1.36-.33a14.78,14.78,0,0,1-1.38,3.16C199.42,160.55,199.44,159.61,199.48,158.67Z"/><path class="cls-1" d="M195.27,161.61a15.24,15.24,0,0,1,2.29-1.4c0,1.26,0,2.52.08,3.77-.7.78-1.45,1.51-2.21,2.24A28.43,28.43,0,0,0,195.27,161.61Z"/><path class="cls-1" d="M163.16,163.15a8.21,8.21,0,0,1,1.51-1.6c1.27.31,2.5.75,3.75,1.12a20.35,20.35,0,0,1-1.86,1.47C165.35,164.23,164.26,163.53,163.16,163.15Z"/><path class="cls-1" d="M191.32,163.29l2.48-1.06a28.26,28.26,0,0,0-.17,5.12c-.67.41-1.34.83-2,1.27A19.9,19.9,0,0,0,191.32,163.29Z"/><path class="cls-1" d="M186.56,165.29a15.39,15.39,0,0,0,3.35-1.2,48.24,48.24,0,0,0,.12,5.24l-2.35,1.07A21.11,21.11,0,0,0,186.56,165.29Z"/><path class="cls-1" d="M181.75,166.55c1.26-.24,2.51-.52,3.74-.88.22,1.76.46,3.53.61,5.3-1,.32-2,.62-3,.91A13.75,13.75,0,0,0,181.75,166.55Z"/><path class="cls-1" d="M177.28,167c1.13,0,2.26-.18,3.4-.32.45,1.78.53,3.63,1,5.42a21.51,21.51,0,0,0-3.11.26C178.57,170.5,177.79,168.77,177.28,167Z"/><path class="cls-1" d="M173.24,167.36c.9-.13,1.81-.2,2.73-.25a26.26,26.26,0,0,0,1.74,5.27,26.36,26.36,0,0,1-2.82-.21A47,47,0,0,0,173.24,167.36Z"/><path class="cls-1" d="M170.65,171c.43-.92.85-1.84,1.27-2.76a25.86,25.86,0,0,0,1.29,3.71Z"/><path class="cls-1" d="M150.47,171.55c.77-.43,1.53-.86,2.3-1.25a20.46,20.46,0,0,1-1.51,2.12A4.35,4.35,0,0,1,150.47,171.55Z"/><path class="cls-1" d="M166,170.28c.63.48-.49,1.81-1.2,1.56C164.77,171.2,165.49,170.58,166,170.28Z"/><path class="cls-1" d="M79.3,174.09c3.11-1.51,6.32-3.21,9.86-3.27,2-.23,3.79.78,5.59,1.46-2.23,1.72-4.29,3.67-6.5,5.42-.8.54-.44,1.48-.21,2.22,2.21-.28,3.94-1.77,5.74-2.95a19.42,19.42,0,0,1,7.45-3.36,16.94,16.94,0,0,1,11.69,4,9.47,9.47,0,0,1,2.41,3.51,22.09,22.09,0,0,0,.73,4c-7.85,1.66-15.91,3.45-24,2.14-2.6-.49-5.25-.75-7.81-1.39-2.91-1.35-6.2-1.77-8.91-3.53A34,34,0,0,1,71,179.28C73.52,177.16,76.59,175.9,79.3,174.09Z"/><path class="cls-1" d="M42.61,178.06c2.09-1.82,5-2,7.55-2.46a15.61,15.61,0,0,1,8.43,1.12c2.6,1.46,5.6,2.59,7.46,5a5,5,0,0,1-.4,4.81,6.12,6.12,0,0,1-8,1.49c-1.21-1.67-2.09-3.61-3.68-5s-2.92-3.65-5.31-3.78c.16,1,1.05,1.42,1.76,2,2.14,2.3,4.47,4.54,5.74,7.48A12.25,12.25,0,0,1,56.89,199c-.66,1.95-2.75,2.57-4.44,3.33-.78-5.53-1.39-11.5-5-16a3,3,0,0,0-2.48-.8,10,10,0,0,0,1.84,2.25c2.08,3.18,2.69,7,3.05,10.72a33.43,33.43,0,0,1,.3,7,5.52,5.52,0,0,1-3.7,4.47,10.5,10.5,0,0,1-6.39-6.85,5.06,5.06,0,0,1,.07-2.91c-.79-3.28,1.37-6.22,2-9.32l-1.28.39a22.07,22.07,0,0,0-2.19,6.9,7.64,7.64,0,0,1-1.2-4.31c-.15-.23-.43-.7-.57-.92a6.92,6.92,0,0,0-.45,3.86c.23,1.48,1.29,2.62,1.86,4a18.86,18.86,0,0,1,0,5.09c-1.45.87-2.92,1.93-4.69,1.93-3.5.54-7.2-2.79-6.61-6.39.48-4.15,2.57-7.9,4.76-11.38C34.86,185.6,38.11,181.15,42.61,178.06Z"/><path class="cls-1" d="M23.16,193a14.64,14.64,0,0,1,6.35-3c-2.25,4.17-4.85,8.86-3.66,13.76a6.3,6.3,0,0,0,2,3.33c-2.23.27-4.82.3-6.58-1.31-1.88-2.11-1.91-5.28-1.11-7.85A16.7,16.7,0,0,1,23.16,193Z"/><path class="cls-1" d="M188.06,200.52a20,20,0,0,1,2.19-.2,2.84,2.84,0,0,1-1.75,3C188.34,202.4,188.2,201.45,188.06,200.52Z"/><path class="cls-1" d="M184.68,201.47l2.16-.38c.24.86.52,1.71.8,2.56-.81.2-1.63.38-2.44.57A19.34,19.34,0,0,0,184.68,201.47Z"/><path class="cls-1" d="M178.07,201.91l1.28-.15a23.85,23.85,0,0,0,1.38,2.2C179.82,203.3,178.92,202.64,178.07,201.91Z"/><path class="cls-1" d="M181.17,201.94c.68-.09,1.36-.15,2-.2.26.91.54,1.82.82,2.73a6.63,6.63,0,0,1-1.48-.14A20.29,20.29,0,0,1,181.17,201.94Z"/><path class="cls-1" d="M139.88,203.6a12.92,12.92,0,0,1,2.09-1.32c-.5,1.85-1.17,3.76-.86,5.7a15,15,0,0,0,2.33,6.66c1.68,3.79,3.43,7.62,4.07,11.75.78,4.58,1.29,9.3.46,13.91-.49,2.56-2.65,4.22-4.25,6.1a33.35,33.35,0,0,1-18.06,7.35c-3.76-.3-7.87-.19-11.11-2.39-1-1.37-1-3.08-1.46-4.62a8.58,8.58,0,0,1,.59-6.31c1.37-2.62,3-5.27,5.58-6.85a19.71,19.71,0,0,1,13.43-4.17,31.83,31.83,0,0,1,4.52,1.48c1.48,1,2.51,2.43,3.83,3.57-.06-2.14-1.76-3.72-3.31-5a16,16,0,0,0-5.84-1.94,26.59,26.59,0,0,0-6,.29c4.52-3,10.59-4.26,15.62-1.88,0-.33.08-1,.11-1.31-2.16-1.75-5.08-1.5-7.67-1.54a15.53,15.53,0,0,0-3.45.5,20.58,20.58,0,0,0,4.67-3.2,4.67,4.67,0,0,0,.19-6.31c-1-1.5-3.08-1.49-4.68-1.21-2.27.52-3.43,3-5.6,3.56,1.95-2.53,4.59-4.42,6.71-6.79,2.37.59,5.31.59,6.85,2.8a14.86,14.86,0,0,1,.47,8.78c.91-1.65,2.09-3.35,1.92-5.31,0-2.3.16-5.3-2.11-6.65a7.27,7.27,0,0,0-5.11-1.3C135.72,206.39,138,205.2,139.88,203.6Z"/><path class="cls-1" d="M83.87,203.61c2.35,3.53,1.55,8,.8,11.89-1.3,5.64-3.15,11.14-4.5,16.77a37.6,37.6,0,0,0-.37,8.93c0,1.21-.2,2.69,1,3.49.56-2.24.09-4.57.63-6.82,1.2-10.18,7.5-19.17,7.4-29.59,3.09,4,3,9.43,2.27,14.2-1.24,5.4-3,10.66-4.54,16-.83,4.93-2.49,9.72-2.82,14.73a37.8,37.8,0,0,0,.29,9.62c.17.68.43,1.9,1.39,1.46.43-1,0-2.15,0-3.21-.55-4.09.2-8.19.94-12.2,3-.26,5.3,2.18,6.78,4.51a16.51,16.51,0,0,1,.93,5,11.18,11.18,0,0,0-2.13,2.57c-.94,1.44-2.18,2.91-2.12,4.74.13,3.29-.87,6.95-3.69,8.92a4.26,4.26,0,0,1-3.36,1.27c.34-4.33.62-8.91-1.13-13-1-2.05-1.57-4.23-2.34-6.35-.65-2.81-1.62-5.65-1.21-8.57.26-2.65,0-5.33.12-8a57.06,57.06,0,0,1,1.92-11.46c.62-3.87,2.19-7.5,2.75-11.37a43.47,43.47,0,0,0,.86-10.79A10.8,10.8,0,0,1,83.87,203.61Z"/><path class="cls-1" d="M75.62,262.4a8.93,8.93,0,0,0,1.43-2.88c.32,2,1.33,3.76,1.86,5.69a63.27,63.27,0,0,1,1.31,10c.07,1.47-.93,2.56-1.84,3.58-.09-3.43.21-6.89-.44-10.28A17.24,17.24,0,0,0,75.62,262.4Z"/><path class="cls-2" d="M160.43,148.84l1.57-1.57s-3.26-2.69-3.26-3.76.36-4.84,1.69-5.66,6.29-6.46,6.85-6.35a7.5,7.5,0,0,0,2.32-.56s5.77-1.42,8.53-1.78a96.19,96.19,0,0,1,11.66-.56,19,19,0,0,1,8.72,1.9,7,7,0,0,1,2.91,3.12,26.91,26.91,0,0,1,1.77,2.25,8,8,0,0,0,1.15,1.4,16.35,16.35,0,0,1,2.24,2.08c1.76,3.64.48,4.06.21,4.64s-.16.46-1.31,1.22-1.32,1.43-1.32,1.43.79,12.55.62,13.35-26,9.64-28.39,9.54-17.12-6-17.1-8-2-7.39-2-7.39Z"/><path class="cls-3" d="M108.65,1.18C112.47.46,116.41.91,120.21,0c.05,3.31.84,6.55,1.25,9.81.43,5.1.94,10.2.88,15.32.43,2.38-.4,4.76-.13,7.14,1-3.54.68-7.26.73-10.89.1-3.2-.36-6.37-.21-9.56-.3-3.95-.41-7.93-1.06-11.85,1.51-.12,2.89.65,4.39.57,0,1,.07,2.06.2,3.08,1.91-.64,4.06-.81,5.61-2.24,4.12.68,6.66,4.43,8.88,7.61-1,2.29-1.73,4.66-2.62,7-1.26,4.15-3.43,8-4.36,12.24,1.13-1.76,1.66-3.81,2.56-5.68a115.08,115.08,0,0,0,5-12.23,7.11,7.11,0,0,1,.83,2.25A34.92,34.92,0,0,0,139.82,17a113.4,113.4,0,0,0-4.48,10.9c-.9,2.48-2.41,4.78-2.75,7.44,3-7.41,7.09-14.34,10.38-21.63.44,1.76,1.29,3.42,1.42,5.25-1.11.17-1.41,1.25-1.77,2.15a32.8,32.8,0,0,1,4.65,0c2.2,6.58.44,13.78-2.74,19.74a66.72,66.72,0,0,1,7.17,3.85c1.7,1.15,3.65,1.85,5.36,3,1.14,2.11,3.21,3.39,4.8,5.14,1.84.9,3.95,2.15,4.37,4.35.2.77.32,1.57.53,2.35a21,21,0,0,1,4,3.5,16.72,16.72,0,0,1,1.93,4.18c1,.16,1.92.26,2.89.34.52,1.21,1.78,1.68,2.69,2.51a12.45,12.45,0,0,1,.13,5.23c2,1.2,4.62,2.27,5.24,4.75a10.85,10.85,0,0,1-.14,3.36c1.9,1.13,4.33,3,3.75,5.47,2.54.11,5.12-.66,7.61.11,1.7.6,3.61.57,5.15,1.59A15.21,15.21,0,0,1,203.31,93a9,9,0,0,1,1.9,7.9,26.1,26.1,0,0,1-5.16,10.32,20.73,20.73,0,0,1,3.91-.65,38.45,38.45,0,0,1,9.7.67c2,.9,4.24,1.36,5.87,2.88a22.47,22.47,0,0,1,6.4,8.47c2.31,5.53,1.65,11.76-.09,17.35A34.15,34.15,0,0,1,218.35,154a11,11,0,0,1-2.53,10.41,24.41,24.41,0,0,1,.61,4.16c-.34,4.27-3.06,7.77-4.46,11.7-.67,1.64-1.45,3.25-2.19,4.86-1.07,3.05-2,6.14-3.25,9.14-1.32,4.25.53,8.75-.65,13-.48,5.35-6,9.74-11.35,8.65-2-.42-3.32-2.07-4.4-3.65a12.78,12.78,0,0,1-.59-7.32c-2.18.77-4.48,1.73-6.82,1.15-2.82-.55-6.22-1.61-7.11-4.72-4.63-1.37-9-4.66-10.23-9.53-.87-2,0-4.17,1.29-5.78a20.34,20.34,0,0,1-3.21-1.75,24.68,24.68,0,0,1-4.9,5.15,122.76,122.76,0,0,1-10.73,8.7,10,10,0,0,1,2.56,2.86c1.32,2.53,1.4,5.45,1.76,8.22.21,1.43-.33,3.31-2,3.37,2.12,3.59,2.63,7.8,3.49,11.8a47.28,47.28,0,0,1,1,11.32c.26,5.13-2,9.91-4.2,14.41-1.31,2.31-2.53,4.93-4.91,6.34-1.43.77-2.86,1.57-4.27,2.4-2.34,1.33-5,1.89-7.5,2.82a31.81,31.81,0,0,1-7.66.8c-3.32.27-7.3.49-9.87-2.06-1.07-1.2-2.31-2.41-2.64-4.05a9,9,0,0,1,.36-4.86c-2-.62-2.91-2.62-3.53-4.41a12.68,12.68,0,0,1,1-11A17.39,17.39,0,0,1,122,228.63a24.24,24.24,0,0,1,.89-2.47,15.39,15.39,0,0,1-6.75,1.13c-.54-.09-.79.51-1.11.83-4.3,5.36-7.55,11.45-11.64,17a92,92,0,0,0-6.17,10.79c-.31-.26-.6-.52-.9-.79a16.87,16.87,0,0,1,0,2.66,14.61,14.61,0,0,1-1.88,3.69,20.63,20.63,0,0,0-2.2,8.76c-.15,3.71-1.72,7.82-5.16,9.64a4.87,4.87,0,0,1-5.7-.95c-.76.82-1.67,1.48-2.48,2.25-1.85,3.15-4.72,6-8.44,6.68A10.69,10.69,0,0,1,64,285.86c-3.38-2.39-5.54-6.05-7.34-9.69-1.89-4.19-3.49-8.71-3.09-13.37a4.48,4.48,0,0,1,1.69-1.22c2.22-1,4.37-2.11,6.64-3-2.46-2.11-3.53-5.28-4.73-8.18-2.21-5.58-2.54-11.64-3.2-17.54-.09-5.37-.06-10.83,1.24-16.07,1.54-5.59,3.55-11.16,6.93-15.91a24.74,24.74,0,0,1-2.65-2.67c-.76,2.42-1.84,4.9-4,6.39a6.57,6.57,0,0,1-3.1.51,14.29,14.29,0,0,1-3.69,7.18,5.22,5.22,0,0,1-6.29.17c-1.55-.87-2.37-2.52-3.13-4-1.73,1.65-4,3.16-6.47,2.91-1.58.13-2.9-.87-4.1-1.74-.73.6-1.36,1.52-2.4,1.54a7.65,7.65,0,0,1-8.53-4.35,19.46,19.46,0,0,1-1-3.07,19.07,19.07,0,0,1-8-3.12c-1.88-1.31-3-3.37-4.34-5.2A30.75,30.75,0,0,1,0,178.94a22.85,22.85,0,0,1,8.09-15.49,39.37,39.37,0,0,1,6.87-4.3c5.32-3.11,11.64-3.87,17.68-4-2.12-7.48-3.37-15.39-2-23.13.77-4.2,1.53-8.56,3.86-12.23,1.2-2.42,2.67-4.85,5.13-6.16A51.5,51.5,0,0,1,39,99.47c-.13-.75-.88-1.21-1.25-1.84a7.88,7.88,0,0,0,1.8-.65A55.71,55.71,0,0,1,48,91.46a4.21,4.21,0,0,1,1.7-.48,20.11,20.11,0,0,1,.58-3.54A34.35,34.35,0,0,1,58.51,73.3a50.64,50.64,0,0,1,5.08-4.75,6,6,0,0,1,1.22-3.85c1.54-1.2,3.68-.9,5.29,0a51.89,51.89,0,0,1,4.78-4.94c.31-1,.17-2.27,1-3a6.25,6.25,0,0,1,4.37-1.79C82,53.59,83.85,52.37,85.54,51a8.61,8.61,0,0,1,3.33-3.81c-.78-2.23-1.5-4.48-2.27-6.71A39.18,39.18,0,0,0,77.37,26c.29-.44.6-.87.92-1.28,4.8,2.35,7.29,7.38,10.06,11.68-2-5.54-4.82-11-9-15.17,2.29-4.47,6.44-7.48,9.89-11a29.78,29.78,0,0,1,9.53-6.23C102,3,105.19,1.56,108.65,1.18Zm-7,3.39A28.91,28.91,0,0,0,91,10.8c-3.11,3.06-6.4,5.92-9.33,9.16a97.17,97.17,0,0,1,12-1.06,24.52,24.52,0,0,1,4.25-5.63c.6,2,1,4.32,2.6,5.84.09-2.41.15-4.93-1-7.11a28.58,28.58,0,0,1,2.86-2.64c.86,3.35,1.34,6.87,2.95,10a41.12,41.12,0,0,0-1.9-10.71,58.09,58.09,0,0,1,10.21-6.54A33.88,33.88,0,0,0,101.7,4.57Zm24.56.54c0,1.25-.05,2.49,0,3.74.38,3.23,0,6.5.23,9.74,1.13-4.81,2.64-9.52,3.88-14.29Q128.32,4.62,126.26,5.11ZM88.77,20.47C92,26.54,93.38,33.35,94.89,40a16.35,16.35,0,0,1,.52,2.86,6.66,6.66,0,0,1-1.06-2.56C93.2,36.09,91.67,32,90.18,27.88c-1.07-2.44-2.23-4.83-3.32-7.26-.52,0-1,.11-1.56.2a52.63,52.63,0,0,1,5,11,22,22,0,0,1,1.55,6.63c-1.69-3.33-2.71-7-4.56-10.26-1.41-2.34-2.39-4.92-4-7.13l-1.65.2c2,3.17,4.36,6.19,5.81,9.69,2.67,5.53,4.22,11.49,6.24,17.26a17.71,17.71,0,0,0-2-.34A55.79,55.79,0,0,0,84.61,33a53.06,53.06,0,0,1,3.54,7.75c.8,2.2,1.45,4.45,2.42,6.58a115.22,115.22,0,0,1,3,14.12,43.76,43.76,0,0,1,.75,6.47,32.21,32.21,0,0,1,7.4-.65c.06-2.29.45-4.58.11-6.86a120.13,120.13,0,0,0-1.14-15.74C99.9,36.45,97.26,28.57,94.22,21a1.71,1.71,0,0,0-1.85-.89c1.64,3.26,2.06,7,2.94,10.46a55.15,55.15,0,0,1,1.88,13.94,23.63,23.63,0,0,1-1-5.15,36.87,36.87,0,0,0-2-7.68C92.92,27.8,91.56,24,90.28,20.13Zm53.07,2.66c-1.48,3.11-3,6.22-4.29,9.4,3-3.05,4.9-7,8.07-9.86C144.36,22.67,143,22.41,141.84,23.13ZM120.7,46.32c-2.92,2.08-5.09,5-7.63,7.46a5.53,5.53,0,0,1,3,1.75,6.23,6.23,0,0,1-.38,1.75c-1.09-1-2.3-2.45-4-1.75a94.25,94.25,0,0,0-7.82,11.77c-.24.49-.08,1-.19,1.57-.56.51-1.18.95-1.73,1.47l-.8-1c-2.59.7-5.55-.57-7.86,1.1a13.11,13.11,0,0,1-.44-1.34c-.08-5-1.2-10-2.07-14.94a9.75,9.75,0,0,0-6.17,2c0-.36-.08-1.09-.11-1.45.44-.37.89-.74,1.35-1.09-.15-.51-.28-1-.4-1.54-.62,1.43-2,2.21-3.17,3.13l.72,1.23c-1.54.52-3.35-.46-4.7.69-1.41.76-1.53,2.45-1.5,3.87a31.37,31.37,0,0,1,4.65-.08c-.15.47-.3.93-.47,1.39-1.17,0-2.33,0-3.49.06S75.78,63.65,75,64.37a6.77,6.77,0,0,1,.81-2.88,47.63,47.63,0,0,1-6.59,6.73c-.75.72-1.32,1.57-2,2.34-.47-1,.38-1.81.8-2.66a24,24,0,0,0-8.83,6.83,30.2,30.2,0,0,0-7.23,13.88,48.56,48.56,0,0,0,.17,8.44c7.69,1.77,15.44,3.28,23.09,5.23-.35-1.73.6-3.32,1.24-4.87a5.85,5.85,0,0,1,3-3.23,6.36,6.36,0,0,1,8.86,3.25c.63,2.85-1.88,4.89-3,7.26,1.43.38,3.16.1,4.32,1.16,3.23-1.77,7.65-2.22,10.71.13,1.52,1.52,3.87.94,5.81,1.06,3-.15,6,.26,9.08.21a9.45,9.45,0,0,1,5.45-8.72c2.16-1,5.07-.67,6.57,1.32a8.69,8.69,0,0,1,.76,7.81c5.58,0,11.15.54,16.73.4,1.58.08,2.22-1.63,3.45-2.31a91.66,91.66,0,0,1,11.07-5.9c2.71-1.62,5.28-3.51,8.27-4.61A109.83,109.83,0,0,1,179,90.5,63.07,63.07,0,0,1,186,89a11.78,11.78,0,0,0-3.67-3.22c-.78-.33-1.15-1.14-1.61-1.78.38-1.28,1.12-2.71.53-4a35,35,0,0,0-4.33-3,5,5,0,0,1-.55,2.43c-1.16-.79-2-1.94-3.24-2.67-1-.55-2.47,0-3.08-1.11-.22-1.08,1.29-1.14,2-1.2,1.47-.3,2.72.92,4.17.47a9.56,9.56,0,0,0-.52-4c-1.17-.94-2.84-.53-4.21-1-2-.66-3.94.6-5.71,1.42,0-.69-.55-1.66.23-2.09a8.42,8.42,0,0,1,4.27-1.6,5.29,5.29,0,0,0-1.74-2.12c-1.26-.82-1.31-2.44-1.93-3.67-2.18-.79-4.53-.44-6.77-.12.06-.64-.1-1.51.75-1.64,1.46-.64,3.11-.68,4.59-1.3-.33-.92-.42-2.11-1.41-2.6A8.74,8.74,0,0,0,161.26,55,18.13,18.13,0,0,0,157,56.08c-.24-.56-.69-1.16-.19-1.72a17.36,17.36,0,0,1,2.78-1.25l-1-1.14-1.5.34c-.51-1.08-1-2.17-1.42-3.27-1.76-.93-3.75-.71-5.64-.42-.53-1,.28-1.64,1-2.23a74.33,74.33,0,0,0-6.65-3.56,35,35,0,0,0-7.19-2.06C131.19,40,125.47,42.9,120.7,46.32ZM86.49,53.15a10,10,0,0,1,4-.9c-.3-1.21-.63-2.4-1-3.59A5.64,5.64,0,0,0,86.49,53.15Zm-21.22,14a7.37,7.37,0,0,1,3.3-.83c.08-.25.26-.74.35-1A4.89,4.89,0,0,0,65.27,67.18ZM176.84,95.42a50,50,0,0,0-4.8,2.66,59.21,59.21,0,0,0-11.41,7.67c-2.22,1.64-4.1,3.75-6.62,5a43.53,43.53,0,0,1-.63,8.06,90.45,90.45,0,0,1,7.36-5.86c2.45-1.67,4.54-3.81,7.12-5.32,3.35-2.61,6.94-4.88,10.21-7.6,2.17-1.89,5.05-2.44,7.54-3.75a12,12,0,0,1,7.1-.86c1.91.39,2.81,2.6,2.54,4.37-.68,2.29-1.81,4.65-4.05,5.77,2,1.83,4.3,3.85,4.17,6.8a8.22,8.22,0,0,0,2.62-1.93,29.48,29.48,0,0,0,4.1-5.85c1.18-2.88,1.88-6.22.59-9.19-.77-1.71-2.58-2.51-4.1-3.42a17.68,17.68,0,0,0-7.84-1C185.83,91.41,181.33,93.55,176.84,95.42Zm-4.35-.6c-3.6,2.1-7.46,3.72-10.91,6.08-4,2.25-7.66,4.87-11.45,7.38,1.09,0,2.28-.24,3.2.5,3.72-3.46,8.25-5.87,12.49-8.6A99.69,99.69,0,0,1,183,91.47,28,28,0,0,0,172.49,94.82Zm-130.59,3q5.34,1,10.64,2.1c3.93,1,7.85,2.14,11.83,3,4.45,1.24,9.09,1.56,13.6,2.57,3,.62,6.2.53,8.87,2.16.58-.34,1.18-.66,1.79-1-4.81-1.48-9.8-2.15-14.69-3.28-7.37-1.49-14.7-3.22-22-4.85a66.15,66.15,0,0,1-8-2Zm149.74.07a1.37,1.37,0,0,0-.08,1.48C192.47,99.81,192.66,97.3,191.64,97.89Zm-8.58,2.54c-2,1.67-4.4,2.73-6.51,4.26a92.82,92.82,0,0,0-7.61,5.63c-3.31,3.07-6.67,6.09-10.26,8.82-1.85,2-4.25,3.28-6.52,4.71-1.64,2.43-2.64,5.24-4.4,7.61-1.89,2.53-3.63,5.18-5.69,7.57A17,17,0,0,1,135,143.2a10.63,10.63,0,0,1-4.49,1.3c-1.28.69-2.74,1.26-4.16.6-2.76-.21-5.58.12-8.32-.46a26.88,26.88,0,0,1-16.48-8.33c-1.86-2.28-2.48-5.24-3.28-8A49.42,49.42,0,0,1,97,119c-.91-1.74-1.94-3.67-3.85-4.48a5,5,0,0,0-3.07-.27,37.48,37.48,0,0,1-1.88,7,10.43,10.43,0,0,1-4,4.37c.95.56,2.18.92,2.71,2a11.11,11.11,0,0,1-.39,1.78c-1.73-.33-3.46-1.05-5.24-.6-2.72.42-5.56,1.85-6.81,4.42-.93,2-.13,4.31.84,6.18,1.7,2.69,5,3.89,8,4a38.2,38.2,0,0,1,4.77-.63c-.59,1.89-2.84,2.35-4.47,3a11.57,11.57,0,0,1-9.86-3.63,14.25,14.25,0,0,1-2.71-8c-5.51,2.44-12.09,1.55-17.17-1.52a21.57,21.57,0,0,1-8.19-6.73,9.07,9.07,0,0,1-3.13,2.42,14.94,14.94,0,0,0-2.39,4c-.48-.65-1.16-1.29-1-2.18C38.8,127,42.1,124.64,45,125a28.78,28.78,0,0,1-5-9.86,18.55,18.55,0,0,0-2.63,4.15c-.85,1.89-2.17,3.54-2.84,5.51a42.55,42.55,0,0,0-1.58,20.59c.49,3,.45,6.33,2,9.1.86,2.29,1.24,4.74,2.15,7,1.68,4.49,3.35,9.1,6.32,12.93,3.81-1.09,7.83-2.07,11.81-1.42,4.1.27,7.6,2.7,10.57,5.34a8.33,8.33,0,0,1,2.92,4.06,9.24,9.24,0,0,1-2,8.11A10.83,10.83,0,0,1,58.9,193c.12.17.38.5.51.67,2.15,1.15,3.9,2.89,6.09,4a13.58,13.58,0,0,1,6-2.41c3-.22,6.22-.46,8.93,1.12a5.9,5.9,0,0,1,3.43,4.16c1.17.07,2.51-.3,3.49.53.78.46.92,1.41,1.11,2.22a8.87,8.87,0,0,1,2.91,1.63c1.18,1.14,1.61,2.77,2.16,4.26,3.66.38,7.3.77,11,1.06a43.12,43.12,0,0,0,9.12-1c3.66-.92,7.49-1.2,11-2.68,3.73-1.65,7.43-3.38,11.22-4.89a59.17,59.17,0,0,0,9.25-4.45c1.65-1.11,3.28-2.26,5-3.34,1.65-.86,2.15-2.8,3.43-4.05s.9-2.85,1-4.31h.84c.67,1.21.53,2.63.58,4,2.06-2.32,4.35-4.46,6-7.07a14.49,14.49,0,0,1-1.71-4.65,27.24,27.24,0,0,1,.11-4.14c.15-1.18-.17-2.41.26-3.55.54-1.64,2-2.64,3.18-3.84l-2.12-.9a56.78,56.78,0,0,1-4.91,7.49,9.29,9.29,0,0,1-3.91,2.8c-2.28,1-5.42-1.1-5-3.66.24-2.37,2.52-3.77,4.44-4.79a16.26,16.26,0,0,0,5.58-4.54c-1.77-2.84-2.71-6.39-1.57-9.65.57-2.42,2.71-3.91,4.48-5.44-1.52-.92-3.44-2.17-3.29-4.2-.16-1.39.73-2.55,1.48-3.63.22,1.25.48,2.69,1.65,3.41a33.15,33.15,0,0,0,5.32,3,30.07,30.07,0,0,0,16.29.74c-2.67-.21-5.33.48-8,.11a34.61,34.61,0,0,1-7.18-1.5,17,17,0,0,1-5.52-3.27c-1.19-.85-1.36-2.43-1.53-3.78.14-1.77,2-2.58,2.47-4.17-.41-1.05-1.28-1.89-1.51-3a9.08,9.08,0,0,1,2.46.52c.65-1.4,1-3.49,2.9-3.68,1.57-.2,3.42-.49,4.81.44a47.68,47.68,0,0,0,1.53,9.19l.64.93a35.6,35.6,0,0,0-1-4.68,23.14,23.14,0,0,1,5.18-1.3c1.17-.17,2.45.06,3.48-.65a26.67,26.67,0,0,0-8.82,1.37c-.12-.69-.24-1.36-.36-2A44.8,44.8,0,0,1,182.46,130a44.13,44.13,0,0,1,15.22,1.37c1.35.31,2.61,1.66,2,3.11-.88,2-2.9,3.36-4.86,4.27a45.58,45.58,0,0,1-14.9,2.7c-3.86-.09-8,.44-11.53-1.4a20.28,20.28,0,0,1,2.43-1.09c5.46,1.2,11.12.53,16.59-.26a31,31,0,0,0,7.7-2.14,2.18,2.18,0,0,0,1.17-1.71c-2.11,2.17-5.23,2.6-8.05,3.17a53.78,53.78,0,0,1-10,.94c-2.51,0-5.16.32-7.48-.88a11.72,11.72,0,0,0-3.17,1.42,46.22,46.22,0,0,0,.2-7.89c-.84,1.78-.38,3.76-.63,5.64a13.69,13.69,0,0,0,0,2.79c3.4,1.87,7.32,2.15,11.13,2a58.15,58.15,0,0,0,14.84-2.2,14.65,14.65,0,0,0,7.42-4.53c.51-.62.27-1.49.4-2.22.95,1.11,2.56,2.21,2.38,3.83-2.09,3-5.71,4.25-8.81,5.9,3.63-1,7.56-2.4,9.81-5.59a8.7,8.7,0,0,1,2.38,4.81c-.62,1.8-2.6,2.57-4,3.73-2.71,2.15-6.09,3.06-9.35,4a83.38,83.38,0,0,1-22.2.84c-2.57-.14-5-1.16-7.39-1.91a17.19,17.19,0,0,0-3.15,5.77,7.37,7.37,0,0,0,.23,2.09,14.59,14.59,0,0,1,4.54-5.26,56.09,56.09,0,0,0,11.19,1.1c6.36.16,12.63-1.17,18.82-2.47.23.82.43,1.65.59,2.49,1.05-1.07,1.86-2.34,2.86-3.46a19.8,19.8,0,0,1,2.23-1.06c-.61,3.69-3.46,6.46-6.43,8.45a36.1,36.1,0,0,1-21.43,6.65c-.26.73-.51,1.48-.77,2.23a41.9,41.9,0,0,0,19.87-4.56c1.9-1.41,4.26-2.28,5.75-4.2,1.45-1.74,2.83-3.54,4.12-5.39a5.85,5.85,0,0,0,.59-4.25l1.49-.91a17,17,0,0,0,1,2.15c2.85,2.09,4.69,5.21,6.32,8.28a19.11,19.11,0,0,1,2.06,5,12,12,0,0,0,1.24-4c.19-2.38-.81-4.65-1.66-6.83a13.2,13.2,0,0,0-6.53-6.6,7.52,7.52,0,0,0,.71-2.29,26.44,26.44,0,0,0-1-2.6,12,12,0,0,0,3.94-8.23c-.14-.66-.2-1.46-.82-1.86-3.13-2.19-7.23-2.3-10.79-1.22a30,30,0,0,1,1.11,3.52,13.07,13.07,0,0,0-2.93-1.44c0-.26-.05-.77-.07-1-1.86-.32-3.76-.38-5.62-.72a5.54,5.54,0,0,1-4.27-3.45c-.92-1.82,0-3.84.6-5.61a11.93,11.93,0,0,1,6-5.49,31.47,31.47,0,0,1-3.61-4c-.35-.6-1.05-.73-1.65-.93-.08-1.47-1-2.66-1.33-4.06.61-.16,1.23-.29,1.86-.41a50.5,50.5,0,0,1,.21-6.15A44.06,44.06,0,0,0,183.06,100.43Zm-143-1c.47,2.69-.12,5.41.29,8.1A62.85,62.85,0,0,0,42,115.44c1.31,4.08,4.07,7.46,6.65,10.79,2.34,3,5.9,4.4,9.07,6.22a16.46,16.46,0,0,0,8.66,1.39c1.65-.24,3.47-.39,4.84-1.44.73-1,1-2.25,1.75-3.24,1.7-2.54,4.81-3.67,7.74-4,1.73-1.5,2.7-3.67,3.76-5.66.87-1.5.69-3.34,1.56-4.85a18.75,18.75,0,0,1,.11-5.29c-3.8-1.35-7.84-1.51-11.75-2.37-6.43-.94-12.82-2.06-19.14-3.58C50.19,102,45,101,40,99.42Zm51.9,6.63a10.32,10.32,0,0,1,6.72,3.34,13,13,0,0,0,1.2-1.59,7.25,7.25,0,0,0-2.8-1.83C95.38,105.42,93.62,105.87,91.93,106.05Zm-4.22,3a26.22,26.22,0,0,1-.25,4.43,6.06,6.06,0,0,1,4.17-1.3c2.35.28,4.18,2,5.54,3.82a46.89,46.89,0,0,1,.69-5.4,9.33,9.33,0,0,0-5.31-2.72A12,12,0,0,0,87.71,109.09Zm14.47-.47c-.68.68-1.41,1.31-2.13,1.95,4.1-.08,8.19.36,12.29.46,2.75.36,5.54,0,8.29.29,9.56.24,19.12.65,28.67,1.16a40.45,40.45,0,0,1,3-2.72c-2.8,0-5.6-.34-8.41-.23-7.16-.42-14.34-.08-21.51-.25-2.77-.37-5.57,0-8.34-.33C110.09,108.79,106.12,109.12,102.18,108.62Zm-3,8.14c-.44,3.9.51,7.75,1.32,11.53.73,2.51,1.13,5.32,3,7.3,1.53,1.52,3,3.21,4.9,4.22a23.83,23.83,0,0,0,7.69,2.75c4.14.62,8.49,1.53,12.56.05,4.29-1,7.85-3.86,10.94-6.89a21.21,21.21,0,0,0,6.53-10c1-3.85,2.31-7.64,2.75-11.61-4.83-.23-9.67-.43-14.51-.51-8.57-.32-17.15-.83-25.73-1.16a81.77,81.77,0,0,1-9.26-.42C99.26,113.6,99.38,115.19,99.18,116.76Zm67.38,11.92c.15.26.45.78.61,1a4.66,4.66,0,0,0,2.7-.8A7.28,7.28,0,0,0,166.56,128.68Zm-8.1,25.06c-.75,2.11,0,4.39,1.06,6.25.17-.73.84-1.55.22-2.23-1.57-2.3-.51-5.2.69-7.41A10.32,10.32,0,0,0,158.46,153.74Zm47-3a18.23,18.23,0,0,1-2.4,4.84c-.22,1.29-.24,2.6-.44,3.9-.24,2-1.44,3.63-2.52,5.23a18.32,18.32,0,0,1-5.13,4.4,37.59,37.59,0,0,1-12.06,5.34c-4.42.63-9.32.75-13.24-1.71a16.84,16.84,0,0,1-1.93,1.94,7.68,7.68,0,0,1-4.43.81,10.34,10.34,0,0,0,2,6.93,17,17,0,0,0,7.55,3.19c5.58.06,11.38-.24,16.53-2.59a19,19,0,0,0,7.62-4.8,5,5,0,0,1,2.76-1.62c-.52,2.28-2.45,3.76-3.91,5.45-3.19,2.77-7.27,4.19-11.27,5.34a17,17,0,0,1-6.72,1.17c-3,.48-6-.62-8.72-1.84-.64-.3-1.24.4-1.19,1-.36,1.72.65,3.27,1.43,4.71a12.07,12.07,0,0,0,9.28,4.83c3,.62,6.12,0,9.1-.64,3.92-.57,7.17-3,10.12-5.51,1.6-1.33,2.61-3.21,4.16-4.57a38.5,38.5,0,0,1-6.54,8c-.53,1.82-1.88,3.25-2.44,5.06-1.18,3-2.39,6.49-1.1,9.66a5.13,5.13,0,0,0,6.56,2.84c2.11-.51,3.44-2.4,4.56-4.11,1.13-2.3.47-5,.83-7.41a32.79,32.79,0,0,1,3.84-15,64.82,64.82,0,0,1,1.83-6.4c1-2.49,2.67-4.86,2.5-7.65-.14-3.34.41-6.77-.6-10A25,25,0,0,0,205.44,150.73Zm-6,7.94c0,.94-.06,1.88,0,2.83a14.78,14.78,0,0,0,1.38-3.16C200.38,158.44,199.93,158.55,199.48,158.67Zm-4.21,2.94a28.43,28.43,0,0,1,.16,4.61c.76-.73,1.51-1.46,2.21-2.24-.11-1.25-.09-2.51-.08-3.77A15.24,15.24,0,0,0,195.27,161.61Zm-32.11,1.54c1.1.38,2.19,1.08,3.4,1a20.35,20.35,0,0,0,1.86-1.47c-1.25-.37-2.48-.81-3.75-1.12A8.21,8.21,0,0,0,163.16,163.15Zm28.16.14a19.9,19.9,0,0,1,.32,5.33c.65-.44,1.32-.86,2-1.27a28.26,28.26,0,0,1,.17-5.12Zm-4.76,2a21.11,21.11,0,0,1,1.12,5.11l2.35-1.07a48.24,48.24,0,0,1-.12-5.24A15.39,15.39,0,0,1,186.56,165.29Zm-4.81,1.26a13.75,13.75,0,0,1,1.34,5.33c1-.29,2-.59,3-.91-.15-1.77-.39-3.54-.61-5.3C184.26,166,183,166.31,181.75,166.55Zm-4.47.46c.51,1.76,1.29,3.49,1.28,5.36a21.51,21.51,0,0,1,3.11-.26c-.46-1.79-.54-3.64-1-5.42C179.54,166.83,178.41,167,177.28,167Zm-151.46,1.7c-5,2.14-9.77,5.69-12,10.82a14.06,14.06,0,0,0-.86,5.54c.76,4,3.87,7,7.38,8.73a12.27,12.27,0,0,1,10.23-5.53c.89-1.68,1.86-3.3,2.76-5,2.09-3.42,4.88-6.58,8.61-8.21A39.2,39.2,0,0,1,38.43,170c-1.08-.21-1.58-1.21-2.34-1.88C32.8,166.6,29.1,167.67,25.82,168.71Zm147.42-1.35a47,47,0,0,1,1.65,4.81,26.36,26.36,0,0,0,2.82.21,26.26,26.26,0,0,1-1.74-5.27C175.05,167.16,174.14,167.23,173.24,167.36ZM170.65,171l2.56.95a25.86,25.86,0,0,1-1.29-3.71C171.5,169.18,171.08,170.1,170.65,171Zm-20.18.53a4.35,4.35,0,0,0,.79.87,20.46,20.46,0,0,0,1.51-2.12C152,170.69,151.24,171.12,150.47,171.55ZM166,170.28c-.53.3-1.25.92-1.2,1.56C165.53,172.09,166.65,170.76,166,170.28ZM42.61,178.06c-4.5,3.09-7.75,7.54-10.88,11.93-2.19,3.48-4.28,7.23-4.76,11.38-.59,3.6,3.11,6.93,6.61,6.39,1.77,0,3.24-1.06,4.69-1.93a18.86,18.86,0,0,0,0-5.09c-.57-1.34-1.63-2.48-1.86-4a6.92,6.92,0,0,1,.45-3.86c.14.22.42.69.57.92a7.64,7.64,0,0,0,1.2,4.31,22.07,22.07,0,0,1,2.19-6.9l1.28-.39c-.64,3.1-2.8,6-2,9.32a5.06,5.06,0,0,0-.07,2.91,10.5,10.5,0,0,0,6.39,6.85,5.52,5.52,0,0,0,3.7-4.47,33.43,33.43,0,0,0-.3-7c-.36-3.71-1-7.54-3.05-10.72A10,10,0,0,1,45,185.5a3,3,0,0,1,2.48.8c3.63,4.52,4.24,10.49,5,16,1.69-.76,3.78-1.38,4.44-3.33a12.25,12.25,0,0,0-.74-10.26c-1.27-2.94-3.6-5.18-5.74-7.48-.71-.55-1.6-1-1.76-2,2.39.13,3.68,2.35,5.31,3.78s2.47,3.33,3.68,5a6.12,6.12,0,0,0,8-1.49,5,5,0,0,0,.4-4.81c-1.86-2.45-4.86-3.58-7.46-5a15.61,15.61,0,0,0-8.43-1.12C47.56,176,44.7,176.24,42.61,178.06ZM23.16,193a16.7,16.7,0,0,0-3,4.92c-.8,2.57-.77,5.74,1.11,7.85,1.76,1.61,4.35,1.58,6.58,1.31a6.3,6.3,0,0,1-2-3.33c-1.19-4.9,1.41-9.59,3.66-13.76A14.64,14.64,0,0,0,23.16,193Zm42.11,9.75c-2.8,2.29-4.27,5.7-5.59,9a48.35,48.35,0,0,0-2.33,12A90.67,90.67,0,0,0,57,234.53c.14,4.83,1.48,9.5,2.65,14.15a48,48,0,0,0,3.7,8.75c0,.3,0,.89,0,1.19,2.91.27,5.83.26,8.74.38a13.85,13.85,0,0,0,4.19-1.79,33.78,33.78,0,0,1-1.24-9c-.18-4.76.84-9.43,1.59-14.09,1.39-5.95,3.46-11.76,4.17-17.85.51-3.81,1.66-7.61,1.22-11.49-.12-1.3-1.23-2.11-2.13-2.89a11.9,11.9,0,0,0-3.8-2.35c-1.31-.09-2.63-.08-3.94-.18C69.55,199.66,67.26,201.18,65.27,202.78Zm78.22-1.38c0,.68,0,1.36-.08,2-.42,2.89.57,5.75,1.54,8.44,1,2.16,1.68,4.47,2.5,6.72,2.46,7,2.4,14.44,2.17,21.72a12.69,12.69,0,0,1-3.21,6.28A33.19,33.19,0,0,1,134.7,254c-2.67,1.37-5.72,1.63-8.64,2.12-3.76-.24-7.94-.69-10.83-3.36a4.8,4.8,0,0,0,2.07,4.62,15.37,15.37,0,0,0,7.09,1.24c2.12-.06,4.27.21,6.33-.41a26.9,26.9,0,0,0,8.67-2.44,59.4,59.4,0,0,0,7.34-6.75,19.07,19.07,0,0,0,5.13-10.16,46.4,46.4,0,0,0,.06-6.24,74.71,74.71,0,0,0-3.22-14.41c-.86-3-2.44-5.81-3.24-8.87a7.87,7.87,0,0,1,4.51.81,21.61,21.61,0,0,0-4.2-10.22C145,200.4,144.25,200.91,143.49,201.4Zm44.57-.88c.14.93.28,1.88.44,2.81a2.84,2.84,0,0,0,1.75-3A20,20,0,0,0,188.06,200.52Zm-3.38.95a19.34,19.34,0,0,1,.52,2.75c.81-.19,1.63-.37,2.44-.57-.28-.85-.56-1.7-.8-2.56Zm-6.61.44c.85.73,1.75,1.39,2.66,2.05a23.85,23.85,0,0,1-1.38-2.2Zm3.1,0a20.29,20.29,0,0,0,1.38,2.39,6.63,6.63,0,0,0,1.48.14c-.28-.91-.56-1.82-.82-2.73C182.53,201.79,181.85,201.85,181.17,201.94Zm-41.29,1.66c-1.93,1.6-4.16,2.79-6.11,4.37a7.27,7.27,0,0,1,5.11,1.3c2.27,1.35,2.09,4.35,2.11,6.65.17,2-1,3.66-1.92,5.31a14.86,14.86,0,0,0-.47-8.78c-1.54-2.21-4.48-2.21-6.85-2.8-2.12,2.37-4.76,4.26-6.71,6.79,2.17-.59,3.33-3,5.6-3.56,1.6-.28,3.65-.29,4.68,1.21a4.67,4.67,0,0,1-.19,6.31,20.58,20.58,0,0,1-4.67,3.2,15.53,15.53,0,0,1,3.45-.5c2.59,0,5.51-.21,7.67,1.54,0,.32-.08,1-.11,1.31-5-2.38-11.1-1.07-15.62,1.88a26.59,26.59,0,0,1,6-.29,16,16,0,0,1,5.84,1.94c1.55,1.26,3.25,2.84,3.31,5-1.32-1.14-2.35-2.62-3.83-3.57a31.83,31.83,0,0,0-4.52-1.48,19.71,19.71,0,0,0-13.43,4.17c-2.58,1.58-4.21,4.23-5.58,6.85a8.58,8.58,0,0,0-.59,6.31c.49,1.54.51,3.25,1.46,4.62,3.24,2.2,7.35,2.09,11.11,2.39a33.35,33.35,0,0,0,18.06-7.35c1.6-1.88,3.76-3.54,4.25-6.1.83-4.61.32-9.33-.46-13.91-.64-4.13-2.39-8-4.07-11.75a15,15,0,0,1-2.33-6.66c-.31-1.94.36-3.85.86-5.7A12.92,12.92,0,0,0,139.88,203.6Zm-56,0a10.8,10.8,0,0,0-.18,2.72,43.47,43.47,0,0,1-.86,10.79c-.56,3.87-2.13,7.5-2.75,11.37A57.06,57.06,0,0,0,78.16,240c-.09,2.66.14,5.34-.12,8-.41,2.92.56,5.76,1.21,8.57.77,2.12,1.38,4.3,2.34,6.35,1.75,4.1,1.47,8.68,1.13,13a4.26,4.26,0,0,0,3.36-1.27c2.82-2,3.82-5.63,3.69-8.92-.06-1.83,1.18-3.3,2.12-4.74A11.18,11.18,0,0,1,94,258.37a16.51,16.51,0,0,0-.93-5c-1.48-2.33-3.78-4.77-6.78-4.51-.74,4-1.49,8.11-.94,12.2,0,1.06.44,2.17,0,3.21-1,.44-1.22-.78-1.39-1.46a37.8,37.8,0,0,1-.29-9.62c.33-5,2-9.8,2.82-14.73,1.49-5.33,3.3-10.59,4.54-16,.72-4.77.82-10.17-2.27-14.2.1,10.42-6.2,19.41-7.4,29.59-.54,2.25-.07,4.58-.63,6.82-1.16-.8-.92-2.28-1-3.49a37.6,37.6,0,0,1,.37-8.93c1.35-5.63,3.2-11.13,4.5-16.77C85.42,211.6,86.22,207.14,83.87,203.61Zm23.44,9.27c.37,1.13,1.23,2.49.29,3.57a74.65,74.65,0,0,1-7.25,8.52,5.57,5.57,0,0,1-3.47-2.31c-2.06-2.9-1.82-6.78-.73-10l-1.9-.41a21.5,21.5,0,0,1,.31,6.55c-1.24,8.58-5.21,16.45-7,24.92-.28,1.25-.63,2.5-1,3.74l1.51-.07c-.63-1.56.73-2.9,1.37-4.21,2-3.61,4.6-6.78,6.67-10.33,1.78-3,4.15-5.55,6.11-8.41a58.8,58.8,0,0,1,6-7.27c1.6-1.8,3.12-3.66,4.81-5.37A27.48,27.48,0,0,1,107.31,212.88ZM75.62,262.4a17.24,17.24,0,0,1,2.32,6.09c.65,3.39.35,6.85.44,10.28.91-1,1.91-2.11,1.84-3.58a63.27,63.27,0,0,0-1.31-10c-.53-1.93-1.54-3.7-1.86-5.69A8.93,8.93,0,0,1,75.62,262.4Zm-17.25,1.09c2.5.09,5,.36,7.48.48,2.64-.76,5.5-1.36,7.53-3.37a28.39,28.39,0,0,1-10.79-.44A37.42,37.42,0,0,0,58.37,263.49Zm7.13,2.78c-1.55-.08-3.13.52-4.64,0-1.34-.45-2.73-.73-4.08-1.13.74,2.37,1,4.89,2.14,7.15a30,30,0,0,0,3.38,6.13,17.33,17.33,0,0,0,6,4.71c2.4,1,4.8-.47,6.86-1.59a13.7,13.7,0,0,0,.66-4.23c-.24-2.08-.07-4.18-.46-6.23-.46-2.47-.85-4.94-1.44-7.37C71.39,265.13,68.52,266.45,65.5,266.27Z"/><path class="cls-3" d="M142,48.61c.31-1.59,2.14-2,3.51-1.9,1.61.17,3.84.61,3.87,2.65-1.34-.36-2.52-1.21-3.92-1.27A11.09,11.09,0,0,0,142,48.61Z"/><path class="cls-3" d="M124.55,54.77a5,5,0,0,1,5.76-.29c.76.35,1,1.88-.05,2-1.09-.41-2.13-1.22-3.36-1.05A8.25,8.25,0,0,0,123.82,57,2.78,2.78,0,0,1,124.55,54.77Z"/><path class="cls-3" d="M146.22,54.82a5.92,5.92,0,0,1,6.69.75c.28.64-.13,1.26-.31,1.86a9.69,9.69,0,0,0-3.76-1.55c-1.2-.25-2.3.39-3.4.75C145.59,56,145.43,55.09,146.22,54.82Z"/><path class="cls-3" d="M154.88,60l1-1.79a7.1,7.1,0,0,1,1.29,2.12A7.87,7.87,0,0,1,154.88,60Z"/><path class="cls-3" d="M154.1,65.9a6.08,6.08,0,0,1,7.86,0,5,5,0,0,1,1,3.38c-1.08-.31-1.73-1.24-2.57-1.89a7.11,7.11,0,0,0-5.55.33A10.4,10.4,0,0,1,154.1,65.9Z"/><path class="cls-3" d="M134.49,66.1c1.28.21,2.84,0,3.76,1.16,1,.83.69,2.19.24,3.22a27.47,27.47,0,0,1-1.83-2.06,15.22,15.22,0,0,0-3.16-1.19Z"/><path class="cls-3" d="M142.56,69.63c1.23-1.16,3-1.28,4.62-1.37a4.21,4.21,0,0,1,4.12,2.62,6.28,6.28,0,0,1-.27,2.85c-.82-.8-1.2-2-2.09-2.68-1.87-.75-3.92,0-5.79.36A1.32,1.32,0,0,1,142.56,69.63Z"/><path class="cls-3" d="M62.4,75.76a4.52,4.52,0,0,1,6-1.6c.83.48.55,1.76,0,2.33a10.79,10.79,0,0,0-3.14-.32,9.07,9.07,0,0,0-2.27,1.41C62.71,77,62.27,76.41,62.4,75.76Z"/><path class="cls-3" d="M124.58,82.53c2.06-.76,4.09-2,6.36-1.82.63,0,1.35.55,1,1.23-.28,1-.76,2.07-1.82,2.35-1.91.63-3.66,1.66-5.51,2.44-5.91,2.76-10.66,7.31-15.83,11.16a4.86,4.86,0,0,1-1.16-2.64,7.12,7.12,0,0,1,1.9-2.88A39.72,39.72,0,0,1,124.58,82.53Z"/><path class="cls-3" d="M60.07,82.29c1.62-.64,3.53-1.17,5.13-.2-.11.59-.24,1.18-.39,1.76-2.28-.94-4.72.11-6.37,1.73C57.42,84.25,59,82.9,60.07,82.29Z"/><path class="cls-3" d="M77,82.22c2.3-.78,4.82-.31,7.11.24a15.8,15.8,0,0,1,7.42,6.32c1,1.57-.14,3.46-1.47,4.39a45.26,45.26,0,0,0-4.42-4.34c-2.53-1.88-5.69-2.52-8.42-4C76.6,84.13,75.7,82.67,77,82.22Z"/><path class="cls-3" d="M168.8,82.52a2.63,2.63,0,0,1,3.19-.06c.85.59.35,1.75.13,2.54C170.94,84.43,168.48,84.37,168.8,82.52Z"/><path class="cls-3" d="M157,83c2.2-.69,4.67.45,6.12,2.15.78.81-.18,1.83-.51,2.62-1.19-.92-2-2.35-3.45-2.89-1.06-.46-2.23-.08-3.34-.16C155.91,84,156.12,83.2,157,83Z"/><path class="cls-3" d="M138.9,85.56c1.56,0,3.52-.52,4.65.9a3.1,3.1,0,0,1,.7,4c-1.17-.69-1.38-2.08-2.05-3.13C141.11,86.69,139.24,87.16,138.9,85.56Z"/><path class="cls-3" d="M45.28,104.74a4.37,4.37,0,0,1,1.81-.33c9.84,1.74,19.52,4.26,29.26,6.49,1,.17,1.86-.37,2.81-.44a45.61,45.61,0,0,1-1.51,7.31,25.73,25.73,0,0,1-4.05,8.36,12.38,12.38,0,0,1-6.21,3.76c-2.92.4-6,.49-8.76-.86a15.79,15.79,0,0,1-8.94-7.66C47,116.29,44,110.68,45.28,104.74Zm4,2c0,2.14.74,4.17,1,6.28.11,1-.16,2,.24,2.9a28.86,28.86,0,0,0,6.25,9.54A22.14,22.14,0,0,0,66.29,128c-.75-3.91,0-7.91.89-11.74a15.25,15.25,0,0,1,1.22-4.94C62,110,55.6,108.52,49.29,106.78Z"/><path class="cls-3" d="M104.28,117c.48-.14,1-.27,1.45-.38a163.06,163.06,0,0,1,17.82.57c3.16-.1,6.31.3,9.48.23,3.57.42,7.17,0,10.73.43a24.2,24.2,0,0,1-8,14c-1.12,1.08-2.75,1.31-4,2.25A24.38,24.38,0,0,1,119,138.35c-4.18-.22-8.51-1.62-11.38-4.81C103.22,129.37,102.4,122.56,104.28,117Zm4,1.44c-.73,3.48-1.6,7.28.21,10.59a24,24,0,0,1,1.74-10.59Zm14,.2c-.41,4.1-1.48,8.12-1.65,12.24a10,10,0,0,1-1.61,5.69,26.45,26.45,0,0,0,11.16-3.15c5.33-3,10-7.84,11.47-14C135.25,118.87,128.77,118.92,122.32,118.64Z"/><path class="cls-3" d="M149.78,133.76a3.41,3.41,0,0,1,4.33.58c.9.54.44,1.7.41,2.54-1.33-.35-2.11-1.71-3.5-1.88C150.28,135,150.09,134.27,149.78,133.76Z"/><path class="cls-3" d="M39.54,136.9a3.74,3.74,0,0,1,4.13-2.74c-.11,1.23-1,2.06-1.83,2.91-1,.91-.59,2.43-1.47,3.41C39.71,139.44,39.05,138.15,39.54,136.9Z"/><path class="cls-3" d="M47.25,138.29c.33-1.45,2-1.94,3.27-2.09,0,.31,0,.92,0,1.23a13.29,13.29,0,0,0-2.58,2.5A5.28,5.28,0,0,1,47.25,138.29Z"/><path class="cls-3" d="M153.56,141.65c.91-1.28,2.61-1.08,4-1-.33.82-.65,1.65-.91,2.5-.81-.06-1.62-.09-2.43-.1A11.5,11.5,0,0,1,153.56,141.65Z"/><path class="cls-3" d="M146.65,140.93c4.55-1,8.17,5.21,5.06,8.67-1.91-.31-.79-2.73-1.46-4C149.57,143.64,146.77,143.2,146.65,140.93Z"/><path class="cls-3" d="M72.69,146.74c2.54-.44,5,.62,7.35,1.51a13.87,13.87,0,0,0,4.61,2.5c2.33,1.19,4.6,2.62,7.2,3.18a22.36,22.36,0,0,0,8.27.4c4.4-1.4,8.48-3.69,12.95-4.93a44.27,44.27,0,0,1,9.66-1.88c2.21.21,4.54.22,6.57,1.25,1.83.85,3.84,1.51,5.3,3,3.41,2.89,4.31,7.63,4.49,11.88-.28,4.11-1.07,8.75-4.45,11.52-1.26,1.51-2,3.43-3.55,4.73-2,2.45-5.11,3.52-7.83,5-4.78,2.53-10.23,3.19-15.47,4.2-2.22.15-4.39.81-6.63.73-4.71.55-9.4-.51-14-1.22a17.55,17.55,0,0,1-4.75-1.15c-2-.89-4.11-1.34-6.08-2.21a31.81,31.81,0,0,1-7.3-5.15c-1.5-1.68-2.89-3.46-4.36-5.18-1.72-2.07-2.37-4.74-3.2-7.24a20.58,20.58,0,0,1,1.17-13.95C64.4,149.73,68.56,147.46,72.69,146.74Zm5.07,2.87a15.49,15.49,0,0,0,.7,8c1.64.86,3.06,2.1,4.79,2.81,3.87,2.08,8.32,2.46,12.58,3.23,5.61.81,11.18-.72,16.57-2.12a39.36,39.36,0,0,0,15.43-9.94c-4.89-1.92-10.08-.43-15,.52-3.83.87-7.39,2.56-11.06,3.89-2.88,1.07-6,.72-9,.33-3.19-.46-5.93-2.26-8.68-3.8C82,151.65,80,150.4,77.76,149.61Zm1.54,24.48c-2.71,1.81-5.78,3.07-8.27,5.19a34,34,0,0,0,4.36,3.09c2.71,1.76,6,2.18,8.91,3.53,2.56.64,5.21.9,7.81,1.39,8,1.31,16.1-.48,24-2.14a22.09,22.09,0,0,1-.73-4,9.47,9.47,0,0,0-2.41-3.51,16.94,16.94,0,0,0-11.69-4A19.42,19.42,0,0,0,93.78,177c-1.8,1.18-3.53,2.67-5.74,2.95-.23-.74-.59-1.68.21-2.22,2.21-1.75,4.27-3.7,6.5-5.42-1.8-.68-3.59-1.69-5.59-1.46C85.62,170.88,82.41,172.58,79.3,174.09Z"/><path class="cls-3" d="M55.82,149a6.69,6.69,0,0,1,4.64-2c-.06,1.59-1.75,2.1-2.68,3.11-2.56,2.52-3,6.39-2.89,9.8,0,2.39,1.08,4.67.73,7.05-2.32-1.42-2.85-4.3-3.3-6.76C51.91,156.22,52.86,151.83,55.82,149Z"/><path class="cls-3" d="M140.93,148.77c.46-.83,1.49-.44,2.17-.15a7.24,7.24,0,0,1,4.18,5.89c.81,5.55.44,11.67-2.69,16.49a5.7,5.7,0,0,1-3.3,2.56c.43-2.23,1.67-4.22,2-6.48.76-4.55,1.6-9.24.6-13.83C143.33,151.47,141,150.77,140.93,148.77Z"/><path class="cls-3" d="M200.55,170.41a10.08,10.08,0,0,1,4.23-2.33c-.55,1.63-1.5,3.45-3.21,4.09C200.87,171.84,200.75,171.07,200.55,170.41Z"/><path class="cls-3" d="M203,178.4a11,11,0,0,1,3.14-3,14.92,14.92,0,0,1-3,6.9,4.39,4.39,0,0,1-1.34-1.77A4,4,0,0,1,203,178.4Z"/><path class="cls-3" d="M149,181.73a2.9,2.9,0,0,1,2.54,2.62c-.3,2-1.4,4.13-3.54,4.56.26-1.62,1.21-3,1.68-4.55C149.61,183.45,149.16,182.63,149,181.73Z"/></g></g></svg>