<svg xmlns="http://www.w3.org/2000/svg" viewBox="0 0 96.85 128"><defs><style>.cls-1{fill:#090400;}</style></defs><g id="Шар_2" data-name="Шар 2"><g id="Слой_1" data-name="Слой 1"><path class="cls-1" d="M89.08,106.19c-4.68,2.08-10,2.29-15.11,2-.55.62-1,1.63-2,1.31-2-.23-4.11-.37-6.15-.56A27.19,27.19,0,0,0,59,107.57c-3-.07-5.8-1.16-8.78-1.17-3.64-.07-7.2-1-10.85-.9a4.91,4.91,0,0,0-2.86-2.73c-5.18-.07-10.66,0-15.33,2.36a21.41,21.41,0,0,1-4,3.36c-2.35,1.86-4.73,3.86-7.79,4.52,1.83-4.79,7.35-6.77,9.69-11.2-1.43-.67-3.09-1.32-4.67-.71-2.3,1-4.44,2.26-6.87,2.89a22.79,22.79,0,0,1,11.07-7.53,18.64,18.64,0,0,0,2.17-1.13,37.76,37.76,0,0,0-3.73-1.69c-3.15.35-5.93,1.9-8.83,3a27,27,0,0,1,9.1-5.36c1.1-.44,2.33.28,3.46-.15,1.92-.92,3.73.88,5.75.52,2.87.72,5.8,1,8.67,1.7,2-.38,4-1.82,6.19-1a85.12,85.12,0,0,0,14.42,2.83c2.76-.12,5.4.86,8.15.94a41.32,41.32,0,0,1,7.3-.43c1.79-.76,3.48-1.77,5.25-2.61,2.7-1.83,6.22-.13,9.13-1.37a7,7,0,0,0,3.17-2.24c-1-1-2.08-2.07-3.13-3.09,2.06,0,4.21-.14,5.71-1.69.26,4.56.42,9.14.52,13.71C92,101.14,91.31,104.24,89.08,106.19ZM35.2,113.33c-1.17.47-2.3-.41-3.42-.64-3.19,3.23-8.16,2.39-12,4.27-1.44.87-2.92-.3-4.38-.46-1.69.47-3.28,1.21-5,1.65-.31-1.06-.69-2.11-1.08-3.15,3.16-.35,5.36-2.59,7.8-4.28,1.51-1.23,2.49-3.27,4.55-3.75a27.32,27.32,0,0,0,6.79-1.13c4.14-.25,7.82,2.18,11.9,2.43a36.28,36.28,0,0,1,5,0C42.78,111.31,38.62,111.67,35.2,113.33ZM6.54,110.69c-.21-.94-.38-1.88-.56-2.84,1.62-.68,3.23-1.38,4.92-1.92A27,27,0,0,1,6.54,110.69Zm-1.86-7.27A24.45,24.45,0,0,1,4,96.88c1,1.37,2.15,2.72,4,3.12A14.61,14.61,0,0,1,4.68,103.42ZM3.28,72c-.13-2.56.76-5,1.08-7.52a13.81,13.81,0,0,1,3.41-8.06c1.88-2,3-4.93,5.89-5.88a31.78,31.78,0,0,0,5.7-1.29c.13,4.74-.36,9.56.77,14.23A65,65,0,0,1,21,79.63L19.4,80.91c-.14-1.9-.33-3.8-.61-5.7-.89,0-1.79,0-2.66,0a43.39,43.39,0,0,0,1.66,14c-2.57.9-5.3,1.55-7.56,3.09C8.17,93.57,6.17,95,4,96.22c-.22-2.85-.24-5.71-.34-8.57C3,82.47,3.28,77.23,3.28,72ZM25,88.9c-.11.81-.55.94-1.31.41C23.76,88.52,24.2,88.38,25,88.9Zm9.6-45a3.87,3.87,0,0,1,.7.41,8,8,0,0,0,1.49,1.9c3,2,6.58.2,9.64-.68,1.79-.25,2.62-1.92,3.43-3.26.4-.75.84-1.47,1.29-2.18a13.67,13.67,0,0,0,1.24,3.63c1.81,1.57,4.47,1.07,6.7,1.09-.37,4.9-.5,9.82-.58,14.74A38.43,38.43,0,0,0,58.37,70a75.1,75.1,0,0,1-7.5-.64c-2.81-.69-5.31,1.2-8.08,1.16a17.16,17.16,0,0,0-5.23.86c-.8.14-2,.91-2.52-.11a7.91,7.91,0,0,1-1.82-6.31,155.87,155.87,0,0,1-1.51-20.25Zm1.14-24.93c2.59-1.11,5.53-1,8.13-2.13A38.65,38.65,0,0,1,48.55,15c1.49,1.57.55,4.1,2.34,5.46.77,1.09,2.18.94,3.37,1.09.48,1.24-.82,1.89-1.47,2.74-.53,1.71.18,3.55-.56,5.23a36.07,36.07,0,0,1-6.92,12.07C44.22,43,43.24,45.47,41,44.32c-.82-1.74-.48-3.74-1-5.56a16.73,16.73,0,0,0-.08-6.07c-2-.75-4-2-6.31-1.55a32.6,32.6,0,0,1,2.88-4.85A16.39,16.39,0,0,0,35.72,18.94ZM68.37,85.2c2.1-2,3.48-4.75,6.12-6.18,2.69-1,5.52-1.51,8.27-2.35,1.25-.45,2.47.31,3.63.67a48.59,48.59,0,0,1-9.56,4.2c-1.18.52-.37,1.94-.44,2.86.85.25,4-.72,2.85.86-1.29.59-2.57,1.19-3.81,1.84,0,1,.1,1.93.19,2.88l-.31.47A21.91,21.91,0,0,0,70,93.28a38.36,38.36,0,0,1-8-.52A33.58,33.58,0,0,0,68.37,85.2Zm2.27-36.39c2.52.78,4.42,2.61,6.72,3.79,1.63.83,2.45,2.51,3.51,3.88a28,28,0,0,1,3.41,6.32c2,4.93,4.56,9.75,5.39,15-2.58-1.55-5.5-3-8.65-2.49-3.59.6-7.26,1.63-10.13,3.86,1.41-2.66.58-5.58.4-8.4.08-1.83-2.1-2.88-1.93-4.73C69,60.28,70.57,54.59,70.64,48.81ZM86,88.61a14.71,14.71,0,0,1-7.83.9c1-1.54,3.11-1.38,4.74-1.76A3.41,3.41,0,0,1,86,88.61Zm-5.6-4.15c0-.15,0-.42.06-.56,2.66-1.14,6.29-2.49,8.85-.52C86.44,84,83.29,85.47,80.4,84.46Zm10.93-1.52a38.35,38.35,0,0,0-5.16-2.18c1.2-.7,2.41-1.37,3.61-2.09C90.34,80.08,90.87,81.5,91.33,82.94Zm5,10.56c-.43-2.3.32-4.62-.05-6.92A88.51,88.51,0,0,0,91.92,69c-1.29-3.75-2.45-7.61-4.6-11-1.43-1.66-2.48-3.56-3.73-5.33a34.81,34.81,0,0,1-5.79-3.47c-4.39-3.21-10-4.07-14.92-6.1-2.27-1.07-4.84-.62-7.27-.74-.59-2.15-1.56-4.29-1.27-6.55l-.9.27c.14-.29.28-.6.41-.9,2.47,1.06,4.13,3.15,6,4.94a21.87,21.87,0,0,0,2.61-.7c.09-.75.15-1.52.23-2.28.76-.55,1.51-1.11,2.24-1.69A11.38,11.38,0,0,0,60.6,29.2c1.19-.79,2.65-1.48,3.19-2.87s1.7-2.6,2.3-4a51,51,0,0,1-4.28-3,8.42,8.42,0,0,0,1.59-4.69,9.18,9.18,0,0,1-3.94-2.13l-2,.77c.1-1.35.88-3-.27-4.13-1.9-1.83-2.32-4.69-4.54-6.28S48-.43,45.13.09a13.87,13.87,0,0,0-8.5,3.41c-2.07,1.71-2.56,4.56-4.76,6.16,0,.82,0,1.64-.05,2.46-2.76.65-5.64,1-8.19,2.29a49.06,49.06,0,0,1-8.84,3.48c.13.49,0,1.21.68,1.39,1.46.71,3,1.18,4.56,1.75a21.21,21.21,0,0,0-1,2.59c4.94-.34,9.23-3.21,14.07-4.06a21,21,0,0,1-.13,4.2c-1.49,2.74-3.93,5-4.84,8,0,2.63,3.27,1.8,5.07,1.84.45,2.21.48,4.64.9,6.93-2.49-.26-4.63,1.42-7,2-3.84,1-7.28,3-11.15,3.84-1.72.38-3.73-.28-5.17.92C8.65,48.88,7.09,51,5.27,52.79c-2.11,2.16-3,5.06-3.57,7.89A50.17,50.17,0,0,0,0,74.41C0,81,0,87.58.23,94.15c-.11,3.63,1.12,7.12,1.51,10.7.41,3.76,3.07,6.78,4.07,10.36.62,1.47.89,3.35,2.46,4.2,1.67,1.18,3.87.43,5.76.94,2.79.86,5.51-.71,8.26-1.08a52.41,52.41,0,0,1-.46,7c1.22.51,2.43,1,3.68,1.5,3.33.75,6.71-.26,9.73-1.59,4.24-1.78,9.1-1.05,13.37-2.71,2.84-.77,5.77,0,8.61.33,2.12.28,3.84-1.87,6-1,2.8.89,5.7,0,8.42-.76,3,0,5.74-1.36,8.75-1.41a27.48,27.48,0,0,0-1.91-4l1.73.09a29.91,29.91,0,0,1-.22-6.62c3.19-.21,6.68.55,9.55-1.2a11.86,11.86,0,0,0,6.48-5A18.92,18.92,0,0,0,96.29,93.5Z"/></g></g></svg>