<svg xmlns="http://www.w3.org/2000/svg" viewBox="0 0 337.23 149.82"><defs><style>.cls-1{fill:#fff;}</style></defs><g id="Шар_2" data-name="Шар 2"><g id="Слой_1" data-name="Слой 1"><path class="cls-1" d="M273.59,1.58c5.08-3.66,12.7-.21,17.53,2.84,4.52,3.86,8.89,7.83,13.31,11.74,5.59,5,9.56,10.77,14.64,16,3.05,3.5,7,6.5,9.55,10.21a49.38,49.38,0,0,0,5.59,6.25c3,2.64.87,6.45-1.47,8.54-3.81.35-6.05-3.05-8.39-5-12.6-10.06-20.88-22.56-32.16-33.39-4.22-4.06-7.73-8.69-13.37-11.74-4.57,3.51-7.92,7.83-11.89,11.74C258.29,27.69,248.74,36,241,45.48c-4,4.52-7.27,9.45-11,14.08-.86,1.62-3.81,1-5-.26a95.81,95.81,0,0,0-8.59-7.62c-6.35-4.83-11.18-10.62-17.43-15.55C188.93,27,180.14,16.77,168.2,8.94c-10.42,11.59-21.4,22.82-32.12,34.25-5.23,5.85-10.52,11.64-16,17.33-1.43,1.27-3.1,2.85-5.64,2.49-4.17-1.62-5.9-5.18-8.49-8A217,217,0,0,0,69.72,19.56c-3.66-2.54-6.81-5.79-11.49-7.21-5.18,3.71-8.13,8.94-12.6,13.11A412.53,412.53,0,0,1,12,53.61c-2.59,1.58-4.57,3.91-8,4.62A5.93,5.93,0,0,1,.86,55.74c-2.28-2.18.56-4.31,1.73-6.09A350.59,350.59,0,0,1,27.39,23c7.37-5.84,13.82-12.4,21.34-18.19,2.34-2,6.35-2.09,9.76-2.44C66.11,3.76,71.6,8.64,77.14,12.7c7.67,5.59,14.38,11.9,21,18.15,5.8,6,11,12.29,16.52,18.39,10-9.65,19.82-19.46,29.93-29.07C150.16,14.33,156.71,9.05,161.9,3c1.62-2.19,5.59-2.08,8.58-1.68,4.88,1.58,8.29,4.88,12.1,7.62,6.3,5.39,12.55,10.88,18.39,16.62,3.76,3.81,8.54,7,12.2,10.82,4.27,4.32,9,8.39,13.57,12.56a310.78,310.78,0,0,1,27.89-28.26c6.86-6,12.81-12.65,19-19.1Zm-157.88,83C135.12,74.75,155,53.05,171,45.89c4.37-1.43,9.71-2.44,14-.61,13.87,5,28.81,20.53,39.43,31a29,29,0,0,1,3.41,4c12.95-8.13,24.18-18.19,35.31-28.66,1.93-1.83,3.46-4,5.49-5.84A16.19,16.19,0,0,1,280,41.36c8.18.31,18.3,5.19,24.7,10.12,5.79,4.37,12,8.28,16.77,13.87C327.81,72.87,334.11,76,334.77,87c.25,5.18-3.66,8.43-8.64,6.86-8.28-3-12.09-8.39-17.94-14.18A73.76,73.76,0,0,0,298,71c-5.28-3.51-10.37-7.62-16.31-10-15.25,13.77-34.66,29.68-52.49,39.84a9.89,9.89,0,0,1-6.35,1c-7.73-1.27-30.54-26.63-38.07-32.88-1.21-.92-3.09-2.59-4.72-3.61-6.1,4.22-11.54,9.1-17.38,13.31-12.35,8.8-23.88,18.2-37.4,25.26-3.76,1.88-7.57,3.56-11.84,3.71a17.22,17.22,0,0,1-10.82-6.66C95.38,92.43,85.73,85.32,77.29,77.8c-3-2.44-12.2-10.62-14.79-12.1-2.49,2.09-24,21.7-26.57,22.77C19,99.7,15.09,81.51,24.49,74c7.57-7.42,15.4-14.59,23.38-21.6a19.44,19.44,0,0,1,10.57-4.93C65,46.14,72,49,76.88,53.25c3.41,3,6.91,5.65,10.47,8.49,9.4,7.62,19.51,14.53,28.36,22.87Zm-70,8.64c7.78-5.69,19.72-6.76,28.1-1.78,6.71,4,12.4,9,18.45,13.77,8.13,6.2,15.4,13.21,22.66,20.32q26.91-18.28,52.95-37.75c3.87-2.9,14.23-4.07,18.6-2.49,6.76,2.44,12.4,6.4,18,10.82l.25.21.21.2c7.87,7.93,17,14.68,24.39,23.12,15-9.45,31.25-25.2,45.22-33.64,3.66-2.18,12.4-2.54,16.47-.86,8,2.89,14.68,7.57,22.15,11.43,5.7,3,11,6.4,16.32,9.81,5.48,3.4,9.24,10.16,7.16,16.61-1.57,5.64-8.18,6.2-13,4.78-4.42-1.52-8.43-4.57-12.35-7.06-6.09-4-12.65-6.91-18.64-10.83-2.6-1.42-5.65-3.86-8.49-4.93-9,3.82-40.7,30.54-52.44,37.1a7.41,7.41,0,0,1-4,1.32c-5.94.31-10.51-5.64-14.22-9.35-6.51-6.66-13.77-12-20.43-18.44a68.11,68.11,0,0,0-11.49-9.25c-1.93-1.27-12,7.21-14.27,8.74-15.86,11.68-32.32,22.56-48.69,33.53-3.55,2.29-7,1-10.06-1.42-8.58-6.81-15.8-15.7-24.34-22.76-6.81-5.8-13.67-10.83-20.83-16.16-.61-.46-2,.2-2.49.61-4.73,3.81-9,7.72-13.62,11.53-17.13,12.55-23-10.06-1.63-27.18Z"/></g></g></svg>