<svg xmlns="http://www.w3.org/2000/svg" viewBox="0 0 148.84 149.08"><defs><style>.cls-1{fill:#fff;}.cls-2{fill:#312c83;}</style></defs><g id="Шар_2" data-name="Шар 2"><g id="Слой_1" data-name="Слой 1"><path class="cls-1" d="M85,.32c2.1-.19,4.24.1,6.32-.29C96,0,100.6,0,105.22,0a18,18,0,0,1,2.54.1,32.42,32.42,0,0,0,4.93.14c1.36,0,2.69.28,4.06.25,2-.06,4.06.25,6.11.19,1.67.31,3.39.16,5.08.36A66.47,66.47,0,0,1,138,2.32c1.91.36,3.39,1.52,5.23,2a7.37,7.37,0,0,1,5.29,7.13,11,11,0,0,1,.18,3.83c-.39,1.63,0,3.31-.43,4.94-.18,2.64-.35,5.27-.61,7.9.17,1.72-.42,3.4-.28,5.11-.69,8.3-1.76,16.59-2.72,24.88-.05,4.44,0,8.88,0,13.31-.45,2.53-.18,5.09-.25,7.63-.09,2,.39,4,.28,6-.09,2.83.22,5.68-.26,8.49-.14,2,.21,4-.24,5.94-.12,3.69-.51,7.36-.88,11-.53,4.43-.79,8.88-1.31,13.31.05,1.91-.49,3.76-.59,5.66,0,2.05-1.22,3.89-2.2,5.7-.44.89-2,.82-2.6.08a13.55,13.55,0,0,0-1.49-1.92c-.55.64-.46,1.52-1,2.19-1.37,1.78-1.81,4.1-4,5.4-2.39,1.23-5.3,1-8,1.3-2.62-.07-5.2.41-7.83.26a65.11,65.11,0,0,1-7.78.24c-6.09.47-12.21.09-18.31.27-2.21.35-4.46.08-6.68.25-1.8.39-3.68.08-5.51.27s-3.42.09-5.13.23a41.84,41.84,0,0,0-4.88.22c-9.11.3-18.18,1.33-27.24,2.26-7.63.61-15.21,1.62-22.76,2.69a28.24,28.24,0,0,1-4.78.17,3.55,3.55,0,0,1-2.12-1.14c-.8-.69-1.9-1-2.77-1.65-1.49-1.34-2.07-3.15-3.3-4.63a11.88,11.88,0,0,1-2.56-6c-.14-2,1-3.92.81-5.93-.5-3.66-.63-7.35-1.12-11a19.64,19.64,0,0,0-.2-4c0-4,0-7.92,0-11.88.46-3,.07-6,.27-9,.64-2.72-.12-5.53.53-8.25C1,76.71,2.58,67.87,3.28,59c-.09-1.62.45-3.19.32-4.82.34-1.81,0-3.67.4-5.48s-.15-3.58.31-5.33c.26-2.52-.21-5.06.3-7.57.21-1.61-.39-3.19-.24-4.81-.1-2.63.26-5.29-.25-7.91-.13-3.21-.46-6.42-.9-9.61-.21-2-.77-3.94-.39-5.92A6.09,6.09,0,0,1,5.7,3.71a18.35,18.35,0,0,1,5.93-1.62c1.42-.33,2.65.68,4.08.43,1.79-.31,3.62-.16,5.42-.45,6.67,0,13.35,0,20,0a30.84,30.84,0,0,0,4.4.25c1.83.12,3.6-.38,5.43-.25,2.72.13,5.41-.36,8.14-.25,1.94-.28,3.91,0,5.84-.37,1.08-.14,2.18,0,3.26-.14,1.69-.32,3.43-.08,5.13-.35C75.5,1,77.6.6,79.74.64,81.49.39,83.28.59,85,.32Z"/><path class="cls-2" d="M78,106.67V120h1.21a3.83,3.83,0,0,0,2.73-1.12l0,0a3.89,3.89,0,0,0,1.11-2.74v-5.52a3.71,3.71,0,0,0-1.16-2.73,3.86,3.86,0,0,0-2.73-1.16Zm0-17.58v11.18h1.21a3.91,3.91,0,0,0,2.73-1.16h0a3.89,3.89,0,0,0,1.11-2.74V93a3.73,3.73,0,0,0-1.16-2.74,3.91,3.91,0,0,0-2.73-1.16Zm-6.49-6.4h7.7a10.32,10.32,0,0,1,7.28,3A10.15,10.15,0,0,1,89.5,93v3.38a10.34,10.34,0,0,1-2.88,7.1,10.32,10.32,0,0,1,2.88,7.09v5.52a10.15,10.15,0,0,1-3.06,7.28h0a10.19,10.19,0,0,1-7.28,3.06l-7.7,0ZM59.27,111.21l-1.39-8.3-1.34,8.3ZM54.59,83.9h6.63l7,42.47H61.78l-1.53-9.27H55.56L54,126.37H47.54Zm-29.84,0h6.49V101c4.87-.7,5.75-7.14,6.54-13.12.18-1.35.37-2.74.6-4h6.54c-.33,1.48-.56,3.15-.79,4.87-.79,5.93-1.67,12.24-5.66,15.81,3.62,3.62,4.45,9.69,5.24,15.44.23,1.53.42,3,.7,4.41h0l.09.55.28,1.39H38.24l-.05-.23-.09-.55h0c-.28-1.49-.51-3.06-.74-4.69-.79-5.79-1.62-12.05-6.12-13v18.5H24.75Zm84,0h6.49l0,.09v42.38h-6.45V102.54l-8.3,23.83H93.71V83.9h6.44v24.76L108.73,84Zm-77-24.67V36a3.44,3.44,0,0,0-2.09,1h0a3.32,3.32,0,0,0-1,2.36v16.6a3.36,3.36,0,0,0,1,2.37,3.79,3.79,0,0,0,2.09,1ZM38.2,36V59.23a3.38,3.38,0,0,0,2.08-1,3.32,3.32,0,0,0,1-2.37V39.29a3.28,3.28,0,0,0-1-2.36,3.52,3.52,0,0,0-2.08-1Zm-6.45-9.32H38.2v2.88a9.81,9.81,0,0,1,9.5,9.78v16.6a9.67,9.67,0,0,1-2.87,6.86v0a9.88,9.88,0,0,1-6.63,2.83v4.68H31.75V65.63a9.75,9.75,0,0,1-9.51-9.74V39.29a9.88,9.88,0,0,1,2.88-6.91h0a9.92,9.92,0,0,1,6.63-2.87Zm54.77,1.21H93V70.31H86.52V51.9H80.26V70.31H73.81V27.84h6.45V46h6.26Zm-36.25,0h6.44l3.53,17.39,3.52-17.39H70.2L63.11,63.31c-.83,3.76-2,5.8-4,7S55,71.56,51.7,71.52l0-6.4c3.66,0,4.22.7,5-2.74L57,61.22Zm67.33,0v5.84h-7.28V70.31h-6.45V33.68H96.59V27.84h21Z"/></g></g></svg>